<?xml version="1.0" encoding="UTF-8"?>
<svg xmlns="http://www.w3.org/2000/svg" width="130" height="130" viewBox="0 0 106 130">
  <defs>
    <style>
      .cls-1 {
      fill: #a4cc37;
      }

      .cls-2 {
      fill: #599596;
      }

      .cls-3 {
      fill: #7bb56f;
      }

      .cls-4 {
      fill: #b8d935;
      }

      .cls-5 {
      fill: #116599;
      }

    @media (prefers-color-scheme: dark) {
      #light-icon {
        display: none;
      }
      #dark-icon {
        display: inline;
      }
    </style>
  </defs>
  <g>
    <path class="cls-2" d="M101.15,61.45c-1.93-7.82-5.12-14.96-9.25-21.23h0c-.65,1.08-1.35,2.13-2.07,3.17-.06.08-.11.16-.17.24-1.22,1.75-2.53,3.43-3.92,5.04-.01.01-.03.03-.04.04-.59.68-1.19,1.36-1.81,2.01.17,1.9.27,3.82.27,5.77,0,12.9-3.9,24.88-10.57,34.84,1.99,4.58,3.22,9.44,3.1,14.65.07,9.98-5.36,16.11-12.18,18.74,18.75-2.62,33.78-16.87,37.55-35.22,1.88-8.13,1.67-17.51-.93-28.07Z"/>
    <path class="cls-1" d="M55.96,67.94c10.82-3.19,20.41-9.21,27.94-17.21-.01-.14-.02-.28-.03-.41-.02-.22-.05-.43-.07-.65-.08-.72-.17-1.43-.27-2.14-.06-.43-.13-.85-.2-1.28-.09-.55-.19-1.1-.29-1.65-.1-.5-.2-.99-.3-1.48-.02-.11-.05-.22-.08-.33-1.69-7.52-4.71-14.54-8.84-20.77-5.2-7.86-12.11-14.48-20.21-19.33,0,0,0,.02,0,.02,6.55,9.91,10.37,21.78,10.37,34.54,0,11.15-2.92,21.61-8.02,30.68Z"/>
    <path class="cls-1" d="M55.96,67.94c-5.63,1.66-11.59,2.57-17.76,2.57-7.88,0-15.42-1.47-22.38-4.12h0c-1.47,4.43-2.27,9.16-2.27,14.08,0,4.03.54,7.92,1.54,11.63h16.65c10.13-5.65,18.53-14.03,24.22-24.15Z"/>
    <path class="cls-4" d="M55.96,67.94c5.1-9.07,8.02-19.54,8.02-30.68,0-12.77-3.82-24.64-10.37-34.54.97,3.6,1.51,7.38,1.54,11.28,0,.14.01.28.01.42,0,8.1-2.17,15.69-5.93,22.25-2.93,5.1-6.85,9.57-11.49,13.15-1.87-5.01-4.37-9.72-7.39-14.03-2.9,7.85-6.53,15.35-10.8,22.42-.15.25-.31.5-.46.76-1.3,2.36-2.4,4.84-3.26,7.43,6.95,2.65,14.49,4.12,22.38,4.12,6.17,0,12.13-.91,17.76-2.57Z"/>
    <path class="cls-3" d="M83.9,50.73c-7.53,8-17.12,14.02-27.94,17.21-5.68,10.11-14.08,18.49-24.22,24.15h5.55c1.55-1.58,3.7-2.56,6.08-2.56,1.17,0,2.29.24,3.31.67,5.1-5.29,11.26-10.13,15.19-17.04,4.41,5.61,8.87,11.61,11.73,18.19,6.67-9.97,10.57-21.95,10.57-34.84,0-1.95-.1-3.87-.27-5.77Z"/>
  </g>
  <g>
    <path class="cls-5" d="M48.67,116.48c-2.12,0-3.96,1.2-4.89,2.95h-21.13c-1.66,0-3,1.34-3,3s1.34,3,3,3h21.69c1.01,1.27,2.57,2.09,4.32,2.09,3.05,0,5.52-2.47,5.52-5.52s-2.47-5.52-5.52-5.52Z"/>
    <path class="cls-5" d="M15.31,101.51h23.76c1.01,1.26,2.56,2.06,4.3,2.06,3.05,0,5.52-2.47,5.52-5.52s-2.47-5.52-5.52-5.52c-2.13,0-3.98,1.21-4.9,2.98H15.31c-1.66,0-3,1.34-3,3s1.34,3,3,3Z"/>
    <path class="cls-5" d="M59.93,104.23c-2.24,0-4.16,1.33-5.02,3.24H7.18c-1.66,0-3,1.34-3,3s1.34,3,3,3h48.69c1.01,1.1,2.46,1.8,4.07,1.8,3.05,0,5.52-2.47,5.52-5.52s-2.47-5.52-5.52-5.52Z"/>
  </g>
</svg>