<?xml version="1.0" encoding="UTF-8"?>
<svg id="Ebene_1" data-name="Ebene 1" xmlns="http://www.w3.org/2000/svg" viewBox="0 0 255.25 130.69">
  <defs>
    <style>
      .cls-1 {
        fill: #a4cc37;
      }

      .cls-2 {
        fill: #fff;
      }

      .cls-3 {
        fill: #599596;
      }

      .cls-4 {
        fill: #7bb56f;
      }

      .cls-5 {
        fill: #b8d935;
      }
    </style>
  </defs>
  <g>
    <polygon class="cls-2" points="149.83 95.43 149.83 100.65 142 100.65 142 125.4 136.15 125.4 136.15 100.65 129.39 100.65 128.32 100.65 111.99 100.65 111.99 108.02 123.82 108.02 123.82 113.24 111.99 113.24 111.99 125.4 106.14 125.4 106.14 95.43 149.83 95.43"/>
    <path class="cls-2" d="M165.49,107.89l-3.58-.55c-1.18-.17-2.09-.55-2.74-1.14-.56-.53-.84-1.25-.84-2.15,0-1.09.39-2,1.18-2.72.79-.72,1.92-1.07,3.41-1.07,2.69,0,4.74.69,6.15,2.06l3.7-3.66c-2.41-2.33-5.64-3.49-9.68-3.49-3.2,0-5.74.84-7.62,2.51-1.88,1.67-2.82,3.87-2.82,6.59,0,2.53.72,4.49,2.15,5.89,1.35,1.29,3.28,2.12,5.81,2.48l3.58.55c1.26.17,2.16.51,2.69,1.01.62.62.93,1.45.93,2.48,0,1.21-.46,2.13-1.37,2.78-.91.65-2.24.97-3.98.97-3.12,0-5.51-.84-7.2-2.53l-3.79,3.79c1.43,1.43,3.02,2.45,4.76,3.05,1.74.6,3.8.91,6.19.91,3.25,0,5.92-.81,8-2.42,2.08-1.61,3.12-3.84,3.12-6.67s-.77-4.88-2.31-6.31c-1.26-1.21-3.17-1.99-5.73-2.36Z"/>
    <path class="cls-2" d="M187.97,104.44c-2.41,0-4.35.84-5.81,2.53v-2.27h-3.03v20.71h3.03v-12.75c0-1.77.46-3.13,1.37-4.08.91-.95,2.17-1.43,3.77-1.43s2.85.47,3.75,1.41c.9.94,1.35,2.31,1.35,4.1v12.75h3.03v-13.26c0-2.44-.72-4.36-2.15-5.77-1.29-1.29-3.06-1.94-5.3-1.94Z"/>
    <path class="cls-2" d="M208.68,104.44c-2.64,0-4.72.93-6.23,2.8-1.52,1.87-2.27,4.47-2.27,7.81,0,3.56.8,6.22,2.4,7.98,1.6,1.75,3.82,2.63,6.65,2.63,1.68,0,3.09-.25,4.21-.76,1.12-.5,2.24-1.32,3.37-2.44l-2.06-1.81c-.84.84-1.66,1.45-2.46,1.81-.8.37-1.79.55-2.97.55-1.96,0-3.47-.62-4.53-1.87-1.05-1.25-1.58-3.01-1.58-5.28h13.98v-1.39c0-3.09-.75-5.53-2.25-7.32-1.5-1.8-3.58-2.69-6.25-2.69ZM203.21,113.57c.08-1.46.29-2.61.63-3.45.39-.95,1.02-1.71,1.89-2.27.87-.56,1.85-.84,2.95-.84s2.08.28,2.95.84c.87.56,1.5,1.32,1.89,2.27.34.84.55,1.99.63,3.45h-10.94Z"/>
    <polygon class="cls-2" points="236.13 104.69 232.47 104.69 227.8 112.35 223.04 104.69 219.38 104.69 226.11 114.84 219.08 125.4 222.74 125.4 227.8 117.36 232.76 125.4 236.43 125.4 229.4 114.84 236.13 104.69"/>
    <path class="cls-2" d="M248.09,107.13v-2.32h-4.42v-6.48h-3.03v6.48h-2.61v2.32h2.61v12.71c0,1.63.46,2.96,1.37,4,.91,1.04,2.22,1.56,3.94,1.56h2.15v-2.61h-1.6c-1.88,0-2.82-1.01-2.82-3.03v-12.63h4.42Z"/>
  </g>
  <g>
    <path class="cls-3" d="M101.15,61.45c-1.93-7.82-5.12-14.96-9.25-21.23h0c-.65,1.08-1.35,2.13-2.07,3.17-.06.08-.11.16-.17.24-1.22,1.75-2.53,3.43-3.92,5.04-.01.01-.03.03-.04.04-.59.68-1.19,1.36-1.81,2.01.17,1.9.27,3.82.27,5.77,0,12.9-3.9,24.88-10.57,34.84,1.99,4.58,3.22,9.44,3.1,14.65.07,9.98-5.36,16.11-12.18,18.74,18.75-2.62,33.78-16.87,37.55-35.22,1.88-8.13,1.67-17.51-.93-28.07Z"/>
    <path class="cls-1" d="M55.96,67.94c10.82-3.19,20.41-9.21,27.94-17.21-.01-.14-.02-.28-.03-.41-.02-.22-.05-.43-.07-.65-.08-.72-.17-1.43-.27-2.14-.06-.43-.13-.85-.2-1.28-.09-.55-.19-1.1-.29-1.65-.1-.5-.2-.99-.3-1.48-.02-.11-.05-.22-.08-.33-1.69-7.52-4.71-14.54-8.84-20.77-5.2-7.86-12.11-14.48-20.21-19.33,0,0,0,.02,0,.02,6.55,9.91,10.37,21.78,10.37,34.54,0,11.15-2.92,21.61-8.02,30.68Z"/>
    <path class="cls-1" d="M55.96,67.94c-5.63,1.66-11.59,2.57-17.76,2.57-7.88,0-15.42-1.47-22.38-4.12h0c-1.47,4.43-2.27,9.16-2.27,14.08,0,4.03.54,7.92,1.54,11.63h16.65c10.13-5.65,18.53-14.03,24.22-24.15Z"/>
    <path class="cls-5" d="M55.96,67.94c5.1-9.07,8.02-19.54,8.02-30.68,0-12.77-3.82-24.64-10.37-34.54.97,3.6,1.51,7.38,1.54,11.28,0,.14.01.28.01.42,0,8.1-2.17,15.69-5.93,22.25-2.93,5.1-6.85,9.57-11.49,13.15-1.87-5.01-4.37-9.72-7.39-14.03-2.9,7.85-6.53,15.35-10.8,22.42-.15.25-.31.5-.46.76-1.3,2.36-2.4,4.84-3.26,7.43,6.95,2.65,14.49,4.12,22.38,4.12,6.17,0,12.13-.91,17.76-2.57Z"/>
    <path class="cls-4" d="M83.9,50.73c-7.53,8-17.12,14.02-27.94,17.21-5.68,10.11-14.08,18.49-24.22,24.15h5.55c1.55-1.58,3.7-2.56,6.08-2.56,1.17,0,2.29.24,3.31.67,5.1-5.29,11.26-10.13,15.19-17.04,4.41,5.61,8.87,11.61,11.73,18.19,6.67-9.97,10.57-21.95,10.57-34.84,0-1.95-.1-3.87-.27-5.77Z"/>
  </g>
  <g>
    <path class="cls-2" d="M48.67,116.48c-2.12,0-3.96,1.2-4.89,2.95h-21.13c-1.66,0-3,1.34-3,3s1.34,3,3,3h21.69c1.01,1.27,2.57,2.09,4.32,2.09,3.05,0,5.52-2.47,5.52-5.52s-2.47-5.52-5.52-5.52Z"/>
    <path class="cls-2" d="M15.31,101.51h23.76c1.01,1.26,2.56,2.06,4.3,2.06,3.05,0,5.52-2.47,5.52-5.52s-2.47-5.52-5.52-5.52c-2.13,0-3.98,1.21-4.9,2.98H15.31c-1.66,0-3,1.34-3,3s1.34,3,3,3Z"/>
    <path class="cls-2" d="M59.93,104.23c-2.24,0-4.16,1.33-5.02,3.24H7.18c-1.66,0-3,1.34-3,3s1.34,3,3,3h48.69c1.01,1.1,2.46,1.8,4.07,1.8,3.05,0,5.52-2.47,5.52-5.52s-2.47-5.52-5.52-5.52Z"/>
  </g>
</svg>