<?xml version="1.0" encoding="utf-8" standalone="no"?>
<!DOCTYPE svg PUBLIC "-//W3C//DTD SVG 1.1//EN"
  "http://www.w3.org/Graphics/SVG/1.1/DTD/svg11.dtd">
<svg xmlns:xlink="http://www.w3.org/1999/xlink" width="808.990672pt" height="251.549531pt" viewBox="0 0 808.990672 251.549531" xmlns="http://www.w3.org/2000/svg" version="1.1">
 <metadata>
  <rdf:RDF xmlns:dc="http://purl.org/dc/elements/1.1/" xmlns:cc="http://creativecommons.org/ns#" xmlns:rdf="http://www.w3.org/1999/02/22-rdf-syntax-ns#">
   <cc:Work>
    <dc:type rdf:resource="http://purl.org/dc/dcmitype/StillImage"/>
    <dc:date>2026-05-07T10:37:51.981194</dc:date>
    <dc:format>image/svg+xml</dc:format>
    <dc:creator>
     <cc:Agent>
      <dc:title>Matplotlib v3.10.9, https://matplotlib.org/</dc:title>
     </cc:Agent>
    </dc:creator>
   </cc:Work>
  </rdf:RDF>
 </metadata>
 <defs>
  <style type="text/css">*{stroke-linejoin: round; stroke-linecap: butt}</style>
 </defs>
 <g id="figure_1">
  <g id="patch_1">
   <path d="M 0 251.549531 
L 808.990672 251.549531 
L 808.990672 0 
L 0 0 
z
" style="fill: #ffffff"/>
  </g>
  <g id="axes_1">
   <g id="patch_2">
    <path d="M 72.615 194.46 
L 339.344552 194.46 
L 339.344552 51.36 
L 72.615 51.36 
z
" style="fill: #ffffff"/>
   </g>
   <g id="matplotlib.axis_1">
    <g id="xtick_1">
     <g id="text_1">
      <!-- 100 -->
      <g style="fill: #262626" transform="translate(101.322738 219.497422) scale(0.165 -0.165)">
       <defs>
        <path id="DejaVuSans-31" d="M 794 531 
L 1825 531 
L 1825 4091 
L 703 3866 
L 703 4441 
L 1819 4666 
L 2450 4666 
L 2450 531 
L 3481 531 
L 3481 0 
L 794 0 
L 794 531 
z
" transform="scale(0.015625)"/>
        <path id="DejaVuSans-30" d="M 2034 4250 
Q 1547 4250 1301 3770 
Q 1056 3291 1056 2328 
Q 1056 1369 1301 889 
Q 1547 409 2034 409 
Q 2525 409 2770 889 
Q 3016 1369 3016 2328 
Q 3016 3291 2770 3770 
Q 2525 4250 2034 4250 
z
M 2034 4750 
Q 2819 4750 3233 4129 
Q 3647 3509 3647 2328 
Q 3647 1150 3233 529 
Q 2819 -91 2034 -91 
Q 1250 -91 836 529 
Q 422 1150 422 2328 
Q 422 3509 836 4129 
Q 1250 4750 2034 4750 
z
" transform="scale(0.015625)"/>
       </defs>
       <use xlink:href="#DejaVuSans-31"/>
       <use xlink:href="#DejaVuSans-30" transform="translate(63.623047 0)"/>
       <use xlink:href="#DejaVuSans-30" transform="translate(127.246094 0)"/>
      </g>
     </g>
    </g>
    <g id="xtick_2">
     <g id="text_2">
      <!-- 1000 -->
      <g style="fill: #262626" transform="translate(184.983526 219.497422) scale(0.165 -0.165)">
       <use xlink:href="#DejaVuSans-31"/>
       <use xlink:href="#DejaVuSans-30" transform="translate(63.623047 0)"/>
       <use xlink:href="#DejaVuSans-30" transform="translate(127.246094 0)"/>
       <use xlink:href="#DejaVuSans-30" transform="translate(190.869141 0)"/>
      </g>
     </g>
    </g>
    <g id="xtick_3">
     <g id="text_3">
      <!-- 10000 -->
      <g style="fill: #262626" transform="translate(268.644314 219.497422) scale(0.165 -0.165)">
       <use xlink:href="#DejaVuSans-31"/>
       <use xlink:href="#DejaVuSans-30" transform="translate(63.623047 0)"/>
       <use xlink:href="#DejaVuSans-30" transform="translate(127.246094 0)"/>
       <use xlink:href="#DejaVuSans-30" transform="translate(190.869141 0)"/>
       <use xlink:href="#DejaVuSans-30" transform="translate(254.492188 0)"/>
      </g>
     </g>
    </g>
    <g id="text_4">
     <!-- Patient count -->
     <g style="fill: #262626" transform="translate(146.392745 240.606094) scale(0.18 -0.18)">
      <defs>
       <path id="DejaVuSans-50" d="M 1259 4147 
L 1259 2394 
L 2053 2394 
Q 2494 2394 2734 2622 
Q 2975 2850 2975 3272 
Q 2975 3691 2734 3919 
Q 2494 4147 2053 4147 
L 1259 4147 
z
M 628 4666 
L 2053 4666 
Q 2838 4666 3239 4311 
Q 3641 3956 3641 3272 
Q 3641 2581 3239 2228 
Q 2838 1875 2053 1875 
L 1259 1875 
L 1259 0 
L 628 0 
L 628 4666 
z
" transform="scale(0.015625)"/>
       <path id="DejaVuSans-61" d="M 2194 1759 
Q 1497 1759 1228 1600 
Q 959 1441 959 1056 
Q 959 750 1161 570 
Q 1363 391 1709 391 
Q 2188 391 2477 730 
Q 2766 1069 2766 1631 
L 2766 1759 
L 2194 1759 
z
M 3341 1997 
L 3341 0 
L 2766 0 
L 2766 531 
Q 2569 213 2275 61 
Q 1981 -91 1556 -91 
Q 1019 -91 701 211 
Q 384 513 384 1019 
Q 384 1609 779 1909 
Q 1175 2209 1959 2209 
L 2766 2209 
L 2766 2266 
Q 2766 2663 2505 2880 
Q 2244 3097 1772 3097 
Q 1472 3097 1187 3025 
Q 903 2953 641 2809 
L 641 3341 
Q 956 3463 1253 3523 
Q 1550 3584 1831 3584 
Q 2591 3584 2966 3190 
Q 3341 2797 3341 1997 
z
" transform="scale(0.015625)"/>
       <path id="DejaVuSans-74" d="M 1172 4494 
L 1172 3500 
L 2356 3500 
L 2356 3053 
L 1172 3053 
L 1172 1153 
Q 1172 725 1289 603 
Q 1406 481 1766 481 
L 2356 481 
L 2356 0 
L 1766 0 
Q 1100 0 847 248 
Q 594 497 594 1153 
L 594 3053 
L 172 3053 
L 172 3500 
L 594 3500 
L 594 4494 
L 1172 4494 
z
" transform="scale(0.015625)"/>
       <path id="DejaVuSans-69" d="M 603 3500 
L 1178 3500 
L 1178 0 
L 603 0 
L 603 3500 
z
M 603 4863 
L 1178 4863 
L 1178 4134 
L 603 4134 
L 603 4863 
z
" transform="scale(0.015625)"/>
       <path id="DejaVuSans-65" d="M 3597 1894 
L 3597 1613 
L 953 1613 
Q 991 1019 1311 708 
Q 1631 397 2203 397 
Q 2534 397 2845 478 
Q 3156 559 3463 722 
L 3463 178 
Q 3153 47 2828 -22 
Q 2503 -91 2169 -91 
Q 1331 -91 842 396 
Q 353 884 353 1716 
Q 353 2575 817 3079 
Q 1281 3584 2069 3584 
Q 2775 3584 3186 3129 
Q 3597 2675 3597 1894 
z
M 3022 2063 
Q 3016 2534 2758 2815 
Q 2500 3097 2075 3097 
Q 1594 3097 1305 2825 
Q 1016 2553 972 2059 
L 3022 2063 
z
" transform="scale(0.015625)"/>
       <path id="DejaVuSans-6e" d="M 3513 2113 
L 3513 0 
L 2938 0 
L 2938 2094 
Q 2938 2591 2744 2837 
Q 2550 3084 2163 3084 
Q 1697 3084 1428 2787 
Q 1159 2491 1159 1978 
L 1159 0 
L 581 0 
L 581 3500 
L 1159 3500 
L 1159 2956 
Q 1366 3272 1645 3428 
Q 1925 3584 2291 3584 
Q 2894 3584 3203 3211 
Q 3513 2838 3513 2113 
z
" transform="scale(0.015625)"/>
       <path id="DejaVuSans-20" transform="scale(0.015625)"/>
       <path id="DejaVuSans-63" d="M 3122 3366 
L 3122 2828 
Q 2878 2963 2633 3030 
Q 2388 3097 2138 3097 
Q 1578 3097 1268 2742 
Q 959 2388 959 1747 
Q 959 1106 1268 751 
Q 1578 397 2138 397 
Q 2388 397 2633 464 
Q 2878 531 3122 666 
L 3122 134 
Q 2881 22 2623 -34 
Q 2366 -91 2075 -91 
Q 1284 -91 818 406 
Q 353 903 353 1747 
Q 353 2603 823 3093 
Q 1294 3584 2113 3584 
Q 2378 3584 2631 3529 
Q 2884 3475 3122 3366 
z
" transform="scale(0.015625)"/>
       <path id="DejaVuSans-6f" d="M 1959 3097 
Q 1497 3097 1228 2736 
Q 959 2375 959 1747 
Q 959 1119 1226 758 
Q 1494 397 1959 397 
Q 2419 397 2687 759 
Q 2956 1122 2956 1747 
Q 2956 2369 2687 2733 
Q 2419 3097 1959 3097 
z
M 1959 3584 
Q 2709 3584 3137 3096 
Q 3566 2609 3566 1747 
Q 3566 888 3137 398 
Q 2709 -91 1959 -91 
Q 1206 -91 779 398 
Q 353 888 353 1747 
Q 353 2609 779 3096 
Q 1206 3584 1959 3584 
z
" transform="scale(0.015625)"/>
       <path id="DejaVuSans-75" d="M 544 1381 
L 544 3500 
L 1119 3500 
L 1119 1403 
Q 1119 906 1312 657 
Q 1506 409 1894 409 
Q 2359 409 2629 706 
Q 2900 1003 2900 1516 
L 2900 3500 
L 3475 3500 
L 3475 0 
L 2900 0 
L 2900 538 
Q 2691 219 2414 64 
Q 2138 -91 1772 -91 
Q 1169 -91 856 284 
Q 544 659 544 1381 
z
M 1991 3584 
L 1991 3584 
z
" transform="scale(0.015625)"/>
      </defs>
      <use xlink:href="#DejaVuSans-50"/>
      <use xlink:href="#DejaVuSans-61" transform="translate(55.802734 0)"/>
      <use xlink:href="#DejaVuSans-74" transform="translate(117.082031 0)"/>
      <use xlink:href="#DejaVuSans-69" transform="translate(156.291016 0)"/>
      <use xlink:href="#DejaVuSans-65" transform="translate(184.074219 0)"/>
      <use xlink:href="#DejaVuSans-6e" transform="translate(245.597656 0)"/>
      <use xlink:href="#DejaVuSans-74" transform="translate(308.976562 0)"/>
      <use xlink:href="#DejaVuSans-20" transform="translate(348.185547 0)"/>
      <use xlink:href="#DejaVuSans-63" transform="translate(379.972656 0)"/>
      <use xlink:href="#DejaVuSans-6f" transform="translate(434.953125 0)"/>
      <use xlink:href="#DejaVuSans-75" transform="translate(496.134766 0)"/>
      <use xlink:href="#DejaVuSans-6e" transform="translate(559.513672 0)"/>
      <use xlink:href="#DejaVuSans-74" transform="translate(622.892578 0)"/>
     </g>
    </g>
   </g>
   <g id="matplotlib.axis_2">
    <g id="ytick_1">
     <g id="line2d_1">
      <path d="M 72.615 194.46 
L 339.344552 194.46 
" clip-path="url(#p916c078cad)" style="fill: none; stroke: #cccccc; stroke-width: 1.5; stroke-linecap: round"/>
     </g>
     <g id="text_5">
      <!-- 0 -->
      <g style="fill: #262626" transform="translate(49.616875 200.728711) scale(0.165 -0.165)">
       <use xlink:href="#DejaVuSans-30"/>
      </g>
     </g>
    </g>
    <g id="ytick_2">
     <g id="line2d_2">
      <path d="M 72.615 154.893818 
L 339.344552 154.893818 
" clip-path="url(#p916c078cad)" style="fill: none; stroke: #cccccc; stroke-width: 1.5; stroke-linecap: round"/>
     </g>
     <g id="text_6">
      <!-- 200 -->
      <g style="fill: #262626" transform="translate(28.620625 161.162529) scale(0.165 -0.165)">
       <defs>
        <path id="DejaVuSans-32" d="M 1228 531 
L 3431 531 
L 3431 0 
L 469 0 
L 469 531 
Q 828 903 1448 1529 
Q 2069 2156 2228 2338 
Q 2531 2678 2651 2914 
Q 2772 3150 2772 3378 
Q 2772 3750 2511 3984 
Q 2250 4219 1831 4219 
Q 1534 4219 1204 4116 
Q 875 4013 500 3803 
L 500 4441 
Q 881 4594 1212 4672 
Q 1544 4750 1819 4750 
Q 2544 4750 2975 4387 
Q 3406 4025 3406 3419 
Q 3406 3131 3298 2873 
Q 3191 2616 2906 2266 
Q 2828 2175 2409 1742 
Q 1991 1309 1228 531 
z
" transform="scale(0.015625)"/>
       </defs>
       <use xlink:href="#DejaVuSans-32"/>
       <use xlink:href="#DejaVuSans-30" transform="translate(63.623047 0)"/>
       <use xlink:href="#DejaVuSans-30" transform="translate(127.246094 0)"/>
      </g>
     </g>
    </g>
    <g id="ytick_3">
     <g id="line2d_3">
      <path d="M 72.615 115.327636 
L 339.344552 115.327636 
" clip-path="url(#p916c078cad)" style="fill: none; stroke: #cccccc; stroke-width: 1.5; stroke-linecap: round"/>
     </g>
     <g id="text_7">
      <!-- 400 -->
      <g style="fill: #262626" transform="translate(28.620625 121.596347) scale(0.165 -0.165)">
       <defs>
        <path id="DejaVuSans-34" d="M 2419 4116 
L 825 1625 
L 2419 1625 
L 2419 4116 
z
M 2253 4666 
L 3047 4666 
L 3047 1625 
L 3713 1625 
L 3713 1100 
L 3047 1100 
L 3047 0 
L 2419 0 
L 2419 1100 
L 313 1100 
L 313 1709 
L 2253 4666 
z
" transform="scale(0.015625)"/>
       </defs>
       <use xlink:href="#DejaVuSans-34"/>
       <use xlink:href="#DejaVuSans-30" transform="translate(63.623047 0)"/>
       <use xlink:href="#DejaVuSans-30" transform="translate(127.246094 0)"/>
      </g>
     </g>
    </g>
    <g id="ytick_4">
     <g id="line2d_4">
      <path d="M 72.615 75.761454 
L 339.344552 75.761454 
" clip-path="url(#p916c078cad)" style="fill: none; stroke: #cccccc; stroke-width: 1.5; stroke-linecap: round"/>
     </g>
     <g id="text_8">
      <!-- 600 -->
      <g style="fill: #262626" transform="translate(28.620625 82.030165) scale(0.165 -0.165)">
       <defs>
        <path id="DejaVuSans-36" d="M 2113 2584 
Q 1688 2584 1439 2293 
Q 1191 2003 1191 1497 
Q 1191 994 1439 701 
Q 1688 409 2113 409 
Q 2538 409 2786 701 
Q 3034 994 3034 1497 
Q 3034 2003 2786 2293 
Q 2538 2584 2113 2584 
z
M 3366 4563 
L 3366 3988 
Q 3128 4100 2886 4159 
Q 2644 4219 2406 4219 
Q 1781 4219 1451 3797 
Q 1122 3375 1075 2522 
Q 1259 2794 1537 2939 
Q 1816 3084 2150 3084 
Q 2853 3084 3261 2657 
Q 3669 2231 3669 1497 
Q 3669 778 3244 343 
Q 2819 -91 2113 -91 
Q 1303 -91 875 529 
Q 447 1150 447 2328 
Q 447 3434 972 4092 
Q 1497 4750 2381 4750 
Q 2619 4750 2861 4703 
Q 3103 4656 3366 4563 
z
" transform="scale(0.015625)"/>
       </defs>
       <use xlink:href="#DejaVuSans-36"/>
       <use xlink:href="#DejaVuSans-30" transform="translate(63.623047 0)"/>
       <use xlink:href="#DejaVuSans-30" transform="translate(127.246094 0)"/>
      </g>
     </g>
    </g>
    <g id="text_9">
     <!-- CPU (%) -->
     <g style="fill: #262626" transform="translate(20.877188 159.642656) rotate(-90) scale(0.18 -0.18)">
      <defs>
       <path id="DejaVuSans-43" d="M 4122 4306 
L 4122 3641 
Q 3803 3938 3442 4084 
Q 3081 4231 2675 4231 
Q 1875 4231 1450 3742 
Q 1025 3253 1025 2328 
Q 1025 1406 1450 917 
Q 1875 428 2675 428 
Q 3081 428 3442 575 
Q 3803 722 4122 1019 
L 4122 359 
Q 3791 134 3420 21 
Q 3050 -91 2638 -91 
Q 1578 -91 968 557 
Q 359 1206 359 2328 
Q 359 3453 968 4101 
Q 1578 4750 2638 4750 
Q 3056 4750 3426 4639 
Q 3797 4528 4122 4306 
z
" transform="scale(0.015625)"/>
       <path id="DejaVuSans-55" d="M 556 4666 
L 1191 4666 
L 1191 1831 
Q 1191 1081 1462 751 
Q 1734 422 2344 422 
Q 2950 422 3222 751 
Q 3494 1081 3494 1831 
L 3494 4666 
L 4128 4666 
L 4128 1753 
Q 4128 841 3676 375 
Q 3225 -91 2344 -91 
Q 1459 -91 1007 375 
Q 556 841 556 1753 
L 556 4666 
z
" transform="scale(0.015625)"/>
       <path id="DejaVuSans-28" d="M 1984 4856 
Q 1566 4138 1362 3434 
Q 1159 2731 1159 2009 
Q 1159 1288 1364 580 
Q 1569 -128 1984 -844 
L 1484 -844 
Q 1016 -109 783 600 
Q 550 1309 550 2009 
Q 550 2706 781 3412 
Q 1013 4119 1484 4856 
L 1984 4856 
z
" transform="scale(0.015625)"/>
       <path id="DejaVuSans-25" d="M 4653 2053 
Q 4381 2053 4226 1822 
Q 4072 1591 4072 1178 
Q 4072 772 4226 539 
Q 4381 306 4653 306 
Q 4919 306 5073 539 
Q 5228 772 5228 1178 
Q 5228 1588 5073 1820 
Q 4919 2053 4653 2053 
z
M 4653 2450 
Q 5147 2450 5437 2106 
Q 5728 1763 5728 1178 
Q 5728 594 5436 251 
Q 5144 -91 4653 -91 
Q 4153 -91 3862 251 
Q 3572 594 3572 1178 
Q 3572 1766 3864 2108 
Q 4156 2450 4653 2450 
z
M 1428 4353 
Q 1159 4353 1004 4120 
Q 850 3888 850 3481 
Q 850 3069 1003 2837 
Q 1156 2606 1428 2606 
Q 1700 2606 1854 2837 
Q 2009 3069 2009 3481 
Q 2009 3884 1853 4118 
Q 1697 4353 1428 4353 
z
M 4250 4750 
L 4750 4750 
L 1831 -91 
L 1331 -91 
L 4250 4750 
z
M 1428 4750 
Q 1922 4750 2215 4408 
Q 2509 4066 2509 3481 
Q 2509 2891 2217 2550 
Q 1925 2209 1428 2209 
Q 931 2209 642 2551 
Q 353 2894 353 3481 
Q 353 4063 643 4406 
Q 934 4750 1428 4750 
z
" transform="scale(0.015625)"/>
       <path id="DejaVuSans-29" d="M 513 4856 
L 1013 4856 
Q 1481 4119 1714 3412 
Q 1947 2706 1947 2009 
Q 1947 1309 1714 600 
Q 1481 -109 1013 -844 
L 513 -844 
Q 928 -128 1133 580 
Q 1338 1288 1338 2009 
Q 1338 2731 1133 3434 
Q 928 4138 513 4856 
z
" transform="scale(0.015625)"/>
      </defs>
      <use xlink:href="#DejaVuSans-43"/>
      <use xlink:href="#DejaVuSans-50" transform="translate(69.824219 0)"/>
      <use xlink:href="#DejaVuSans-55" transform="translate(130.126953 0)"/>
      <use xlink:href="#DejaVuSans-20" transform="translate(203.320312 0)"/>
      <use xlink:href="#DejaVuSans-28" transform="translate(235.107422 0)"/>
      <use xlink:href="#DejaVuSans-25" transform="translate(274.121094 0)"/>
      <use xlink:href="#DejaVuSans-29" transform="translate(369.140625 0)"/>
     </g>
    </g>
   </g>
   <g id="patch_3">
    <path d="M 81.505985 194.46 
L 105.215279 194.46 
L 105.215279 86.92703 
L 81.505985 86.92703 
z
" clip-path="url(#p916c078cad)" style="fill: #5875a4; stroke: #ffffff; stroke-width: 1.5; stroke-linejoin: miter"/>
   </g>
   <g id="patch_4">
    <path d="M 170.415836 194.46 
L 194.125129 194.46 
L 194.125129 71.289816 
L 170.415836 71.289816 
z
" clip-path="url(#p916c078cad)" style="fill: #5875a4; stroke: #ffffff; stroke-width: 1.5; stroke-linejoin: miter"/>
   </g>
   <g id="patch_5">
    <path d="M 259.325686 194.46 
L 283.03498 194.46 
L 283.03498 63.490662 
L 259.325686 63.490662 
z
" clip-path="url(#p916c078cad)" style="fill: #5875a4; stroke: #ffffff; stroke-width: 1.5; stroke-linejoin: miter"/>
   </g>
   <g id="patch_6">
    <path d="M 105.215279 194.46 
L 128.924572 194.46 
L 128.924572 70.341546 
L 105.215279 70.341546 
z
" clip-path="url(#p916c078cad)" style="fill: #cc8963; stroke: #ffffff; stroke-width: 1.5; stroke-linejoin: miter"/>
   </g>
   <g id="patch_7">
    <path d="M 194.125129 194.46 
L 217.834423 194.46 
L 217.834423 81.183339 
L 194.125129 81.183339 
z
" clip-path="url(#p916c078cad)" style="fill: #cc8963; stroke: #ffffff; stroke-width: 1.5; stroke-linejoin: miter"/>
   </g>
   <g id="patch_8">
    <path d="M 283.03498 194.46 
L 306.744273 194.46 
L 306.744273 103.660888 
L 283.03498 103.660888 
z
" clip-path="url(#p916c078cad)" style="fill: #cc8963; stroke: #ffffff; stroke-width: 1.5; stroke-linejoin: miter"/>
   </g>
   <g id="patch_9">
    <path d="M 128.924572 194.46 
L 152.633865 194.46 
L 152.633865 127.921552 
L 128.924572 127.921552 
z
" clip-path="url(#p916c078cad)" style="fill: #5f9e6e; stroke: #ffffff; stroke-width: 1.5; stroke-linejoin: miter"/>
   </g>
   <g id="patch_10">
    <path d="M 217.834423 194.46 
L 241.543716 194.46 
L 241.543716 110.286904 
L 217.834423 110.286904 
z
" clip-path="url(#p916c078cad)" style="fill: #5f9e6e; stroke: #ffffff; stroke-width: 1.5; stroke-linejoin: miter"/>
   </g>
   <g id="patch_11">
    <path d="M 306.744273 194.46 
L 330.453567 194.46 
L 330.453567 84.904539 
L 306.744273 84.904539 
z
" clip-path="url(#p916c078cad)" style="fill: #5f9e6e; stroke: #ffffff; stroke-width: 1.5; stroke-linejoin: miter"/>
   </g>
   <g id="line2d_5">
    <path d="M 93.360632 94.341733 
L 93.360632 82.361093 
" clip-path="url(#p916c078cad)" style="fill: none; stroke: #424242; stroke-width: 3.375; stroke-linecap: round"/>
   </g>
   <g id="line2d_6">
    <path d="M 182.270482 73.16789 
L 182.270482 68.902656 
" clip-path="url(#p916c078cad)" style="fill: none; stroke: #424242; stroke-width: 3.375; stroke-linecap: round"/>
   </g>
   <g id="line2d_7">
    <path d="M 271.180333 66.766082 
L 271.180333 58.174286 
" clip-path="url(#p916c078cad)" style="fill: none; stroke: #424242; stroke-width: 3.375; stroke-linecap: round"/>
   </g>
   <g id="line2d_8">
    <path d="M 117.069925 80.396632 
L 117.069925 63.288215 
" clip-path="url(#p916c078cad)" style="fill: none; stroke: #424242; stroke-width: 3.375; stroke-linecap: round"/>
   </g>
   <g id="line2d_9">
    <path d="M 205.979776 93.235858 
L 205.979776 70.831507 
" clip-path="url(#p916c078cad)" style="fill: none; stroke: #424242; stroke-width: 3.375; stroke-linecap: round"/>
   </g>
   <g id="line2d_10">
    <path d="M 294.889626 116.245571 
L 294.889626 93.364448 
" clip-path="url(#p916c078cad)" style="fill: none; stroke: #424242; stroke-width: 3.375; stroke-linecap: round"/>
   </g>
   <g id="line2d_11">
    <path d="M 140.779219 139.627207 
L 140.779219 111.513456 
" clip-path="url(#p916c078cad)" style="fill: none; stroke: #424242; stroke-width: 3.375; stroke-linecap: round"/>
   </g>
   <g id="line2d_12">
    <path d="M 229.689069 123.962955 
L 229.689069 97.162802 
" clip-path="url(#p916c078cad)" style="fill: none; stroke: #424242; stroke-width: 3.375; stroke-linecap: round"/>
   </g>
   <g id="line2d_13">
    <path d="M 318.59892 95.578176 
L 318.59892 69.086639 
" clip-path="url(#p916c078cad)" style="fill: none; stroke: #424242; stroke-width: 3.375; stroke-linecap: round"/>
   </g>
   <g id="patch_12">
    <path d="M 72.615 194.46 
L 72.615 51.36 
" style="fill: none; stroke: #cccccc; stroke-width: 1.875; stroke-linejoin: miter; stroke-linecap: square"/>
   </g>
   <g id="patch_13">
    <path d="M 72.615 194.46 
L 339.344552 194.46 
" style="fill: none; stroke: #cccccc; stroke-width: 1.875; stroke-linejoin: miter; stroke-linecap: square"/>
   </g>
   <g id="text_10">
    <!-- conc=32 | peak -->
    <g style="fill: #262626" transform="translate(135.146963 45.36) scale(0.18 -0.18)">
     <defs>
      <path id="DejaVuSans-3d" d="M 678 2906 
L 4684 2906 
L 4684 2381 
L 678 2381 
L 678 2906 
z
M 678 1631 
L 4684 1631 
L 4684 1100 
L 678 1100 
L 678 1631 
z
" transform="scale(0.015625)"/>
      <path id="DejaVuSans-33" d="M 2597 2516 
Q 3050 2419 3304 2112 
Q 3559 1806 3559 1356 
Q 3559 666 3084 287 
Q 2609 -91 1734 -91 
Q 1441 -91 1130 -33 
Q 819 25 488 141 
L 488 750 
Q 750 597 1062 519 
Q 1375 441 1716 441 
Q 2309 441 2620 675 
Q 2931 909 2931 1356 
Q 2931 1769 2642 2001 
Q 2353 2234 1838 2234 
L 1294 2234 
L 1294 2753 
L 1863 2753 
Q 2328 2753 2575 2939 
Q 2822 3125 2822 3475 
Q 2822 3834 2567 4026 
Q 2313 4219 1838 4219 
Q 1578 4219 1281 4162 
Q 984 4106 628 3988 
L 628 4550 
Q 988 4650 1302 4700 
Q 1616 4750 1894 4750 
Q 2613 4750 3031 4423 
Q 3450 4097 3450 3541 
Q 3450 3153 3228 2886 
Q 3006 2619 2597 2516 
z
" transform="scale(0.015625)"/>
      <path id="DejaVuSans-7c" d="M 1344 4891 
L 1344 -1509 
L 813 -1509 
L 813 4891 
L 1344 4891 
z
" transform="scale(0.015625)"/>
      <path id="DejaVuSans-70" d="M 1159 525 
L 1159 -1331 
L 581 -1331 
L 581 3500 
L 1159 3500 
L 1159 2969 
Q 1341 3281 1617 3432 
Q 1894 3584 2278 3584 
Q 2916 3584 3314 3078 
Q 3713 2572 3713 1747 
Q 3713 922 3314 415 
Q 2916 -91 2278 -91 
Q 1894 -91 1617 61 
Q 1341 213 1159 525 
z
M 3116 1747 
Q 3116 2381 2855 2742 
Q 2594 3103 2138 3103 
Q 1681 3103 1420 2742 
Q 1159 2381 1159 1747 
Q 1159 1113 1420 752 
Q 1681 391 2138 391 
Q 2594 391 2855 752 
Q 3116 1113 3116 1747 
z
" transform="scale(0.015625)"/>
      <path id="DejaVuSans-6b" d="M 581 4863 
L 1159 4863 
L 1159 1991 
L 2875 3500 
L 3609 3500 
L 1753 1863 
L 3688 0 
L 2938 0 
L 1159 1709 
L 1159 0 
L 581 0 
L 581 4863 
z
" transform="scale(0.015625)"/>
     </defs>
     <use xlink:href="#DejaVuSans-63"/>
     <use xlink:href="#DejaVuSans-6f" transform="translate(54.980469 0)"/>
     <use xlink:href="#DejaVuSans-6e" transform="translate(116.162109 0)"/>
     <use xlink:href="#DejaVuSans-63" transform="translate(179.541016 0)"/>
     <use xlink:href="#DejaVuSans-3d" transform="translate(234.521484 0)"/>
     <use xlink:href="#DejaVuSans-33" transform="translate(318.310547 0)"/>
     <use xlink:href="#DejaVuSans-32" transform="translate(381.933594 0)"/>
     <use xlink:href="#DejaVuSans-20" transform="translate(445.556641 0)"/>
     <use xlink:href="#DejaVuSans-7c" transform="translate(477.34375 0)"/>
     <use xlink:href="#DejaVuSans-20" transform="translate(511.035156 0)"/>
     <use xlink:href="#DejaVuSans-70" transform="translate(542.822266 0)"/>
     <use xlink:href="#DejaVuSans-65" transform="translate(606.298828 0)"/>
     <use xlink:href="#DejaVuSans-61" transform="translate(667.822266 0)"/>
     <use xlink:href="#DejaVuSans-6b" transform="translate(729.101562 0)"/>
    </g>
   </g>
  </g>
  <g id="axes_2">
   <g id="patch_14">
    <path d="M 402.359421 194.46 
L 669.088972 194.46 
L 669.088972 51.36 
L 402.359421 51.36 
z
" style="fill: #ffffff"/>
   </g>
   <g id="matplotlib.axis_3">
    <g id="xtick_4">
     <g id="text_11">
      <!-- 100 -->
      <g style="fill: #262626" transform="translate(431.067158 219.497422) scale(0.165 -0.165)">
       <use xlink:href="#DejaVuSans-31"/>
       <use xlink:href="#DejaVuSans-30" transform="translate(63.623047 0)"/>
       <use xlink:href="#DejaVuSans-30" transform="translate(127.246094 0)"/>
      </g>
     </g>
    </g>
    <g id="xtick_5">
     <g id="text_12">
      <!-- 1000 -->
      <g style="fill: #262626" transform="translate(514.727946 219.497422) scale(0.165 -0.165)">
       <use xlink:href="#DejaVuSans-31"/>
       <use xlink:href="#DejaVuSans-30" transform="translate(63.623047 0)"/>
       <use xlink:href="#DejaVuSans-30" transform="translate(127.246094 0)"/>
       <use xlink:href="#DejaVuSans-30" transform="translate(190.869141 0)"/>
      </g>
     </g>
    </g>
    <g id="xtick_6">
     <g id="text_13">
      <!-- 10000 -->
      <g style="fill: #262626" transform="translate(598.388734 219.497422) scale(0.165 -0.165)">
       <use xlink:href="#DejaVuSans-31"/>
       <use xlink:href="#DejaVuSans-30" transform="translate(63.623047 0)"/>
       <use xlink:href="#DejaVuSans-30" transform="translate(127.246094 0)"/>
       <use xlink:href="#DejaVuSans-30" transform="translate(190.869141 0)"/>
       <use xlink:href="#DejaVuSans-30" transform="translate(254.492188 0)"/>
      </g>
     </g>
    </g>
    <g id="text_14">
     <!-- Patient count -->
     <g style="fill: #262626" transform="translate(476.137165 240.606094) scale(0.18 -0.18)">
      <use xlink:href="#DejaVuSans-50"/>
      <use xlink:href="#DejaVuSans-61" transform="translate(55.802734 0)"/>
      <use xlink:href="#DejaVuSans-74" transform="translate(117.082031 0)"/>
      <use xlink:href="#DejaVuSans-69" transform="translate(156.291016 0)"/>
      <use xlink:href="#DejaVuSans-65" transform="translate(184.074219 0)"/>
      <use xlink:href="#DejaVuSans-6e" transform="translate(245.597656 0)"/>
      <use xlink:href="#DejaVuSans-74" transform="translate(308.976562 0)"/>
      <use xlink:href="#DejaVuSans-20" transform="translate(348.185547 0)"/>
      <use xlink:href="#DejaVuSans-63" transform="translate(379.972656 0)"/>
      <use xlink:href="#DejaVuSans-6f" transform="translate(434.953125 0)"/>
      <use xlink:href="#DejaVuSans-75" transform="translate(496.134766 0)"/>
      <use xlink:href="#DejaVuSans-6e" transform="translate(559.513672 0)"/>
      <use xlink:href="#DejaVuSans-74" transform="translate(622.892578 0)"/>
     </g>
    </g>
   </g>
   <g id="matplotlib.axis_4">
    <g id="ytick_5">
     <g id="line2d_14">
      <path d="M 402.359421 194.46 
L 669.088972 194.46 
" clip-path="url(#p6d39ac4f7c)" style="fill: none; stroke: #cccccc; stroke-width: 1.5; stroke-linecap: round"/>
     </g>
     <g id="text_15">
      <!-- 0 -->
      <g style="fill: #262626" transform="translate(379.361296 200.728711) scale(0.165 -0.165)">
       <use xlink:href="#DejaVuSans-30"/>
      </g>
     </g>
    </g>
    <g id="ytick_6">
     <g id="line2d_15">
      <path d="M 402.359421 145.466674 
L 669.088972 145.466674 
" clip-path="url(#p6d39ac4f7c)" style="fill: none; stroke: #cccccc; stroke-width: 1.5; stroke-linecap: round"/>
     </g>
     <g id="text_16">
      <!-- 50 -->
      <g style="fill: #262626" transform="translate(368.863171 151.735385) scale(0.165 -0.165)">
       <defs>
        <path id="DejaVuSans-35" d="M 691 4666 
L 3169 4666 
L 3169 4134 
L 1269 4134 
L 1269 2991 
Q 1406 3038 1543 3061 
Q 1681 3084 1819 3084 
Q 2600 3084 3056 2656 
Q 3513 2228 3513 1497 
Q 3513 744 3044 326 
Q 2575 -91 1722 -91 
Q 1428 -91 1123 -41 
Q 819 9 494 109 
L 494 744 
Q 775 591 1075 516 
Q 1375 441 1709 441 
Q 2250 441 2565 725 
Q 2881 1009 2881 1497 
Q 2881 1984 2565 2268 
Q 2250 2553 1709 2553 
Q 1456 2553 1204 2497 
Q 953 2441 691 2322 
L 691 4666 
z
" transform="scale(0.015625)"/>
       </defs>
       <use xlink:href="#DejaVuSans-35"/>
       <use xlink:href="#DejaVuSans-30" transform="translate(63.623047 0)"/>
      </g>
     </g>
    </g>
    <g id="ytick_7">
     <g id="line2d_16">
      <path d="M 402.359421 96.473348 
L 669.088972 96.473348 
" clip-path="url(#p6d39ac4f7c)" style="fill: none; stroke: #cccccc; stroke-width: 1.5; stroke-linecap: round"/>
     </g>
     <g id="text_17">
      <!-- 100 -->
      <g style="fill: #262626" transform="translate(358.365046 102.742059) scale(0.165 -0.165)">
       <use xlink:href="#DejaVuSans-31"/>
       <use xlink:href="#DejaVuSans-30" transform="translate(63.623047 0)"/>
       <use xlink:href="#DejaVuSans-30" transform="translate(127.246094 0)"/>
      </g>
     </g>
    </g>
   </g>
   <g id="patch_15">
    <path d="M 411.250406 194.46 
L 434.959699 194.46 
L 434.959699 67.98655 
L 411.250406 67.98655 
z
" clip-path="url(#p6d39ac4f7c)" style="fill: #5875a4; stroke: #ffffff; stroke-width: 1.5; stroke-linejoin: miter"/>
   </g>
   <g id="patch_16">
    <path d="M 500.160256 194.46 
L 523.86955 194.46 
L 523.86955 120.276292 
L 500.160256 120.276292 
z
" clip-path="url(#p6d39ac4f7c)" style="fill: #5875a4; stroke: #ffffff; stroke-width: 1.5; stroke-linejoin: miter"/>
   </g>
   <g id="patch_17">
    <path d="M 589.070107 194.46 
L 612.7794 194.46 
L 612.7794 157.708946 
L 589.070107 157.708946 
z
" clip-path="url(#p6d39ac4f7c)" style="fill: #5875a4; stroke: #ffffff; stroke-width: 1.5; stroke-linejoin: miter"/>
   </g>
   <g id="patch_18">
    <path d="M 434.959699 194.46 
L 458.668993 194.46 
L 458.668993 84.811185 
L 434.959699 84.811185 
z
" clip-path="url(#p6d39ac4f7c)" style="fill: #cc8963; stroke: #ffffff; stroke-width: 1.5; stroke-linejoin: miter"/>
   </g>
   <g id="patch_19">
    <path d="M 523.86955 194.46 
L 547.578843 194.46 
L 547.578843 160.409827 
L 523.86955 160.409827 
z
" clip-path="url(#p6d39ac4f7c)" style="fill: #cc8963; stroke: #ffffff; stroke-width: 1.5; stroke-linejoin: miter"/>
   </g>
   <g id="patch_20">
    <path d="M 612.7794 194.46 
L 636.488694 194.46 
L 636.488694 183.81628 
L 612.7794 183.81628 
z
" clip-path="url(#p6d39ac4f7c)" style="fill: #cc8963; stroke: #ffffff; stroke-width: 1.5; stroke-linejoin: miter"/>
   </g>
   <g id="patch_21">
    <path d="M 458.668993 194.46 
L 482.378286 194.46 
L 482.378286 93.662972 
L 458.668993 93.662972 
z
" clip-path="url(#p6d39ac4f7c)" style="fill: #5f9e6e; stroke: #ffffff; stroke-width: 1.5; stroke-linejoin: miter"/>
   </g>
   <g id="patch_22">
    <path d="M 547.578843 194.46 
L 571.288137 194.46 
L 571.288137 81.180096 
L 547.578843 81.180096 
z
" clip-path="url(#p6d39ac4f7c)" style="fill: #5f9e6e; stroke: #ffffff; stroke-width: 1.5; stroke-linejoin: miter"/>
   </g>
   <g id="patch_23">
    <path d="M 636.488694 194.46 
L 660.197987 194.46 
L 660.197987 103.808762 
L 636.488694 103.808762 
z
" clip-path="url(#p6d39ac4f7c)" style="fill: #5f9e6e; stroke: #ffffff; stroke-width: 1.5; stroke-linejoin: miter"/>
   </g>
   <g id="patch_24">
    <path d="M 446.814346 194.46 
L 446.814346 194.46 
L 446.814346 194.46 
L 446.814346 194.46 
z
" clip-path="url(#p6d39ac4f7c)" style="fill: #5875a4; stroke: #ffffff; stroke-width: 1.5; stroke-linejoin: miter"/>
   </g>
   <g id="patch_25">
    <path d="M 446.814346 194.46 
L 446.814346 194.46 
L 446.814346 194.46 
L 446.814346 194.46 
z
" clip-path="url(#p6d39ac4f7c)" style="fill: #cc8963; stroke: #ffffff; stroke-width: 1.5; stroke-linejoin: miter"/>
   </g>
   <g id="patch_26">
    <path d="M 446.814346 194.46 
L 446.814346 194.46 
L 446.814346 194.46 
L 446.814346 194.46 
z
" clip-path="url(#p6d39ac4f7c)" style="fill: #5f9e6e; stroke: #ffffff; stroke-width: 1.5; stroke-linejoin: miter"/>
   </g>
   <g id="line2d_17">
    <path d="M 423.105052 74.939445 
L 423.105052 58.174286 
" clip-path="url(#p6d39ac4f7c)" style="fill: none; stroke: #424242; stroke-width: 3.375; stroke-linecap: round"/>
   </g>
   <g id="line2d_18">
    <path d="M 512.014903 122.126065 
L 512.014903 119.141359 
" clip-path="url(#p6d39ac4f7c)" style="fill: none; stroke: #424242; stroke-width: 3.375; stroke-linecap: round"/>
   </g>
   <g id="line2d_19">
    <path d="M 600.924753 159.3922 
L 600.924753 154.778754 
" clip-path="url(#p6d39ac4f7c)" style="fill: none; stroke: #424242; stroke-width: 3.375; stroke-linecap: round"/>
   </g>
   <g id="line2d_20">
    <path d="M 446.814346 100.288592 
L 446.814346 67.426185 
" clip-path="url(#p6d39ac4f7c)" style="fill: none; stroke: #424242; stroke-width: 3.375; stroke-linecap: round"/>
   </g>
   <g id="line2d_21">
    <path d="M 535.724196 163.979933 
L 535.724196 153.305606 
" clip-path="url(#p6d39ac4f7c)" style="fill: none; stroke: #424242; stroke-width: 3.375; stroke-linecap: round"/>
   </g>
   <g id="line2d_22">
    <path d="M 624.634047 184.131529 
L 624.634047 183.374998 
" clip-path="url(#p6d39ac4f7c)" style="fill: none; stroke: #424242; stroke-width: 3.375; stroke-linecap: round"/>
   </g>
   <g id="line2d_23">
    <path d="M 470.523639 114.335335 
L 470.523639 68.834877 
" clip-path="url(#p6d39ac4f7c)" style="fill: none; stroke: #424242; stroke-width: 3.375; stroke-linecap: round"/>
   </g>
   <g id="line2d_24">
    <path d="M 559.43349 85.555417 
L 559.43349 73.800745 
" clip-path="url(#p6d39ac4f7c)" style="fill: none; stroke: #424242; stroke-width: 3.375; stroke-linecap: round"/>
   </g>
   <g id="line2d_25">
    <path d="M 648.34334 105.109013 
L 648.34334 102.17763 
" clip-path="url(#p6d39ac4f7c)" style="fill: none; stroke: #424242; stroke-width: 3.375; stroke-linecap: round"/>
   </g>
   <g id="patch_27">
    <path d="M 402.359421 194.46 
L 402.359421 51.36 
" style="fill: none; stroke: #cccccc; stroke-width: 1.875; stroke-linejoin: miter; stroke-linecap: square"/>
   </g>
   <g id="patch_28">
    <path d="M 402.359421 194.46 
L 669.088972 194.46 
" style="fill: none; stroke: #cccccc; stroke-width: 1.875; stroke-linejoin: miter; stroke-linecap: square"/>
   </g>
   <g id="text_18">
    <!-- conc=32 | mean -->
    <g style="fill: #262626" transform="translate(461.346228 45.36) scale(0.18 -0.18)">
     <defs>
      <path id="DejaVuSans-6d" d="M 3328 2828 
Q 3544 3216 3844 3400 
Q 4144 3584 4550 3584 
Q 5097 3584 5394 3201 
Q 5691 2819 5691 2113 
L 5691 0 
L 5113 0 
L 5113 2094 
Q 5113 2597 4934 2840 
Q 4756 3084 4391 3084 
Q 3944 3084 3684 2787 
Q 3425 2491 3425 1978 
L 3425 0 
L 2847 0 
L 2847 2094 
Q 2847 2600 2669 2842 
Q 2491 3084 2119 3084 
Q 1678 3084 1418 2786 
Q 1159 2488 1159 1978 
L 1159 0 
L 581 0 
L 581 3500 
L 1159 3500 
L 1159 2956 
Q 1356 3278 1631 3431 
Q 1906 3584 2284 3584 
Q 2666 3584 2933 3390 
Q 3200 3197 3328 2828 
z
" transform="scale(0.015625)"/>
     </defs>
     <use xlink:href="#DejaVuSans-63"/>
     <use xlink:href="#DejaVuSans-6f" transform="translate(54.980469 0)"/>
     <use xlink:href="#DejaVuSans-6e" transform="translate(116.162109 0)"/>
     <use xlink:href="#DejaVuSans-63" transform="translate(179.541016 0)"/>
     <use xlink:href="#DejaVuSans-3d" transform="translate(234.521484 0)"/>
     <use xlink:href="#DejaVuSans-33" transform="translate(318.310547 0)"/>
     <use xlink:href="#DejaVuSans-32" transform="translate(381.933594 0)"/>
     <use xlink:href="#DejaVuSans-20" transform="translate(445.556641 0)"/>
     <use xlink:href="#DejaVuSans-7c" transform="translate(477.34375 0)"/>
     <use xlink:href="#DejaVuSans-20" transform="translate(511.035156 0)"/>
     <use xlink:href="#DejaVuSans-6d" transform="translate(542.822266 0)"/>
     <use xlink:href="#DejaVuSans-65" transform="translate(640.234375 0)"/>
     <use xlink:href="#DejaVuSans-61" transform="translate(701.757812 0)"/>
     <use xlink:href="#DejaVuSans-6e" transform="translate(763.037109 0)"/>
    </g>
   </g>
  </g>
  <g id="text_19">
   <!-- CPU (%) — peak and mean per run -->
   <g style="fill: #262626" transform="translate(202.090672 23.612625) scale(0.216 -0.216)">
    <defs>
     <path id="DejaVuSans-2014" d="M 313 1978 
L 6088 1978 
L 6088 1528 
L 313 1528 
L 313 1978 
z
" transform="scale(0.015625)"/>
     <path id="DejaVuSans-64" d="M 2906 2969 
L 2906 4863 
L 3481 4863 
L 3481 0 
L 2906 0 
L 2906 525 
Q 2725 213 2448 61 
Q 2172 -91 1784 -91 
Q 1150 -91 751 415 
Q 353 922 353 1747 
Q 353 2572 751 3078 
Q 1150 3584 1784 3584 
Q 2172 3584 2448 3432 
Q 2725 3281 2906 2969 
z
M 947 1747 
Q 947 1113 1208 752 
Q 1469 391 1925 391 
Q 2381 391 2643 752 
Q 2906 1113 2906 1747 
Q 2906 2381 2643 2742 
Q 2381 3103 1925 3103 
Q 1469 3103 1208 2742 
Q 947 2381 947 1747 
z
" transform="scale(0.015625)"/>
     <path id="DejaVuSans-72" d="M 2631 2963 
Q 2534 3019 2420 3045 
Q 2306 3072 2169 3072 
Q 1681 3072 1420 2755 
Q 1159 2438 1159 1844 
L 1159 0 
L 581 0 
L 581 3500 
L 1159 3500 
L 1159 2956 
Q 1341 3275 1631 3429 
Q 1922 3584 2338 3584 
Q 2397 3584 2469 3576 
Q 2541 3569 2628 3553 
L 2631 2963 
z
" transform="scale(0.015625)"/>
    </defs>
    <use xlink:href="#DejaVuSans-43"/>
    <use xlink:href="#DejaVuSans-50" transform="translate(69.824219 0)"/>
    <use xlink:href="#DejaVuSans-55" transform="translate(130.126953 0)"/>
    <use xlink:href="#DejaVuSans-20" transform="translate(203.320312 0)"/>
    <use xlink:href="#DejaVuSans-28" transform="translate(235.107422 0)"/>
    <use xlink:href="#DejaVuSans-25" transform="translate(274.121094 0)"/>
    <use xlink:href="#DejaVuSans-29" transform="translate(369.140625 0)"/>
    <use xlink:href="#DejaVuSans-20" transform="translate(408.154297 0)"/>
    <use xlink:href="#DejaVuSans-2014" transform="translate(439.941406 0)"/>
    <use xlink:href="#DejaVuSans-20" transform="translate(539.941406 0)"/>
    <use xlink:href="#DejaVuSans-70" transform="translate(571.728516 0)"/>
    <use xlink:href="#DejaVuSans-65" transform="translate(635.205078 0)"/>
    <use xlink:href="#DejaVuSans-61" transform="translate(696.728516 0)"/>
    <use xlink:href="#DejaVuSans-6b" transform="translate(758.007812 0)"/>
    <use xlink:href="#DejaVuSans-20" transform="translate(815.917969 0)"/>
    <use xlink:href="#DejaVuSans-61" transform="translate(847.705078 0)"/>
    <use xlink:href="#DejaVuSans-6e" transform="translate(908.984375 0)"/>
    <use xlink:href="#DejaVuSans-64" transform="translate(972.363281 0)"/>
    <use xlink:href="#DejaVuSans-20" transform="translate(1035.839844 0)"/>
    <use xlink:href="#DejaVuSans-6d" transform="translate(1067.626953 0)"/>
    <use xlink:href="#DejaVuSans-65" transform="translate(1165.039062 0)"/>
    <use xlink:href="#DejaVuSans-61" transform="translate(1226.5625 0)"/>
    <use xlink:href="#DejaVuSans-6e" transform="translate(1287.841797 0)"/>
    <use xlink:href="#DejaVuSans-20" transform="translate(1351.220703 0)"/>
    <use xlink:href="#DejaVuSans-70" transform="translate(1383.007812 0)"/>
    <use xlink:href="#DejaVuSans-65" transform="translate(1446.484375 0)"/>
    <use xlink:href="#DejaVuSans-72" transform="translate(1508.007812 0)"/>
    <use xlink:href="#DejaVuSans-20" transform="translate(1549.121094 0)"/>
    <use xlink:href="#DejaVuSans-72" transform="translate(1580.908203 0)"/>
    <use xlink:href="#DejaVuSans-75" transform="translate(1622.021484 0)"/>
    <use xlink:href="#DejaVuSans-6e" transform="translate(1685.400391 0)"/>
   </g>
  </g>
  <g id="legend_1">
   <g id="text_20">
    <!-- agent -->
    <g style="fill: #262626" transform="translate(708.459618 94.413281) scale(0.18 -0.18)">
     <defs>
      <path id="DejaVuSans-67" d="M 2906 1791 
Q 2906 2416 2648 2759 
Q 2391 3103 1925 3103 
Q 1463 3103 1205 2759 
Q 947 2416 947 1791 
Q 947 1169 1205 825 
Q 1463 481 1925 481 
Q 2391 481 2648 825 
Q 2906 1169 2906 1791 
z
M 3481 434 
Q 3481 -459 3084 -895 
Q 2688 -1331 1869 -1331 
Q 1566 -1331 1297 -1286 
Q 1028 -1241 775 -1147 
L 775 -588 
Q 1028 -725 1275 -790 
Q 1522 -856 1778 -856 
Q 2344 -856 2625 -561 
Q 2906 -266 2906 331 
L 2906 616 
Q 2728 306 2450 153 
Q 2172 0 1784 0 
Q 1141 0 747 490 
Q 353 981 353 1791 
Q 353 2603 747 3093 
Q 1141 3584 1784 3584 
Q 2172 3584 2450 3431 
Q 2728 3278 2906 2969 
L 2906 3500 
L 3481 3500 
L 3481 434 
z
" transform="scale(0.015625)"/>
     </defs>
     <use xlink:href="#DejaVuSans-61"/>
     <use xlink:href="#DejaVuSans-67" transform="translate(61.279297 0)"/>
     <use xlink:href="#DejaVuSans-65" transform="translate(124.755859 0)"/>
     <use xlink:href="#DejaVuSans-6e" transform="translate(186.279297 0)"/>
     <use xlink:href="#DejaVuSans-74" transform="translate(249.658203 0)"/>
    </g>
   </g>
   <g id="patch_29">
    <path d="M 674.776063 118.944141 
L 707.776063 118.944141 
L 707.776063 107.394141 
L 674.776063 107.394141 
z
" style="fill: #5875a4; stroke: #ffffff; stroke-width: 1.5; stroke-linejoin: miter"/>
   </g>
   <g id="text_21">
    <!-- cd-agent -->
    <g style="fill: #262626" transform="translate(720.976063 118.944141) scale(0.165 -0.165)">
     <defs>
      <path id="DejaVuSans-2d" d="M 313 2009 
L 1997 2009 
L 1997 1497 
L 313 1497 
L 313 2009 
z
" transform="scale(0.015625)"/>
     </defs>
     <use xlink:href="#DejaVuSans-63"/>
     <use xlink:href="#DejaVuSans-64" transform="translate(54.980469 0)"/>
     <use xlink:href="#DejaVuSans-2d" transform="translate(118.457031 0)"/>
     <use xlink:href="#DejaVuSans-61" transform="translate(154.541016 0)"/>
     <use xlink:href="#DejaVuSans-67" transform="translate(215.820312 0)"/>
     <use xlink:href="#DejaVuSans-65" transform="translate(279.296875 0)"/>
     <use xlink:href="#DejaVuSans-6e" transform="translate(340.820312 0)"/>
     <use xlink:href="#DejaVuSans-74" transform="translate(404.199219 0)"/>
    </g>
   </g>
   <g id="patch_30">
    <path d="M 674.776063 143.163047 
L 707.776063 143.163047 
L 707.776063 131.613047 
L 674.776063 131.613047 
z
" style="fill: #cc8963; stroke: #ffffff; stroke-width: 1.5; stroke-linejoin: miter"/>
   </g>
   <g id="text_22">
    <!-- rd-agent -->
    <g style="fill: #262626" transform="translate(720.976063 143.163047) scale(0.165 -0.165)">
     <use xlink:href="#DejaVuSans-72"/>
     <use xlink:href="#DejaVuSans-64" transform="translate(39.363281 0)"/>
     <use xlink:href="#DejaVuSans-2d" transform="translate(102.839844 0)"/>
     <use xlink:href="#DejaVuSans-61" transform="translate(138.923828 0)"/>
     <use xlink:href="#DejaVuSans-67" transform="translate(200.203125 0)"/>
     <use xlink:href="#DejaVuSans-65" transform="translate(263.679688 0)"/>
     <use xlink:href="#DejaVuSans-6e" transform="translate(325.203125 0)"/>
     <use xlink:href="#DejaVuSans-74" transform="translate(388.582031 0)"/>
    </g>
   </g>
   <g id="patch_31">
    <path d="M 674.776063 167.381953 
L 707.776063 167.381953 
L 707.776063 155.831953 
L 674.776063 155.831953 
z
" style="fill: #5f9e6e; stroke: #ffffff; stroke-width: 1.5; stroke-linejoin: miter"/>
   </g>
   <g id="text_23">
    <!-- tc-agent -->
    <g style="fill: #262626" transform="translate(720.976063 167.381953) scale(0.165 -0.165)">
     <use xlink:href="#DejaVuSans-74"/>
     <use xlink:href="#DejaVuSans-63" transform="translate(39.208984 0)"/>
     <use xlink:href="#DejaVuSans-2d" transform="translate(94.189453 0)"/>
     <use xlink:href="#DejaVuSans-61" transform="translate(130.273438 0)"/>
     <use xlink:href="#DejaVuSans-67" transform="translate(191.552734 0)"/>
     <use xlink:href="#DejaVuSans-65" transform="translate(255.029297 0)"/>
     <use xlink:href="#DejaVuSans-6e" transform="translate(316.552734 0)"/>
     <use xlink:href="#DejaVuSans-74" transform="translate(379.931641 0)"/>
    </g>
   </g>
  </g>
 </g>
 <defs>
  <clipPath id="p916c078cad">
   <rect x="72.615" y="51.36" width="266.729552" height="143.1"/>
  </clipPath>
  <clipPath id="p6d39ac4f7c">
   <rect x="402.359421" y="51.36" width="266.729552" height="143.1"/>
  </clipPath>
 </defs>
</svg>
