<?xml version="1.0" encoding="utf-8" standalone="no"?>
<!DOCTYPE svg PUBLIC "-//W3C//DTD SVG 1.1//EN"
  "http://www.w3.org/Graphics/SVG/1.1/DTD/svg11.dtd">
<svg xmlns:xlink="http://www.w3.org/1999/xlink" width="806.980393pt" height="251.549531pt" viewBox="0 0 806.980393 251.549531" xmlns="http://www.w3.org/2000/svg" version="1.1">
 <metadata>
  <rdf:RDF xmlns:dc="http://purl.org/dc/elements/1.1/" xmlns:cc="http://creativecommons.org/ns#" xmlns:rdf="http://www.w3.org/1999/02/22-rdf-syntax-ns#">
   <cc:Work>
    <dc:type rdf:resource="http://purl.org/dc/dcmitype/StillImage"/>
    <dc:date>2026-05-07T10:37:52.298328</dc:date>
    <dc:format>image/svg+xml</dc:format>
    <dc:creator>
     <cc:Agent>
      <dc:title>Matplotlib v3.10.9, https://matplotlib.org/</dc:title>
     </cc:Agent>
    </dc:creator>
   </cc:Work>
  </rdf:RDF>
 </metadata>
 <defs>
  <style type="text/css">*{stroke-linejoin: round; stroke-linecap: butt}</style>
 </defs>
 <g id="figure_1">
  <g id="patch_1">
   <path d="M -0 251.549531 
L 806.980393 251.549531 
L 806.980393 0 
L -0 0 
z
" style="fill: #ffffff"/>
  </g>
  <g id="axes_1">
   <g id="patch_2">
    <path d="M 83.113125 194.46 
L 338.495515 194.46 
L 338.495515 51.36 
L 83.113125 51.36 
z
" style="fill: #ffffff"/>
   </g>
   <g id="matplotlib.axis_1">
    <g id="xtick_1">
     <g id="text_1">
      <!-- 100 -->
      <g style="fill: #262626" transform="translate(109.929669 219.497422) scale(0.165 -0.165)">
       <defs>
        <path id="DejaVuSans-31" d="M 794 531 
L 1825 531 
L 1825 4091 
L 703 3866 
L 703 4441 
L 1819 4666 
L 2450 4666 
L 2450 531 
L 3481 531 
L 3481 0 
L 794 0 
L 794 531 
z
" transform="scale(0.015625)"/>
        <path id="DejaVuSans-30" d="M 2034 4250 
Q 1547 4250 1301 3770 
Q 1056 3291 1056 2328 
Q 1056 1369 1301 889 
Q 1547 409 2034 409 
Q 2525 409 2770 889 
Q 3016 1369 3016 2328 
Q 3016 3291 2770 3770 
Q 2525 4250 2034 4250 
z
M 2034 4750 
Q 2819 4750 3233 4129 
Q 3647 3509 3647 2328 
Q 3647 1150 3233 529 
Q 2819 -91 2034 -91 
Q 1250 -91 836 529 
Q 422 1150 422 2328 
Q 422 3509 836 4129 
Q 1250 4750 2034 4750 
z
" transform="scale(0.015625)"/>
       </defs>
       <use xlink:href="#DejaVuSans-31"/>
       <use xlink:href="#DejaVuSans-30" transform="translate(63.623047 0)"/>
       <use xlink:href="#DejaVuSans-30" transform="translate(127.246094 0)"/>
      </g>
     </g>
    </g>
    <g id="xtick_2">
     <g id="text_2">
      <!-- 1000 -->
      <g style="fill: #262626" transform="translate(189.80807 219.497422) scale(0.165 -0.165)">
       <use xlink:href="#DejaVuSans-31"/>
       <use xlink:href="#DejaVuSans-30" transform="translate(63.623047 0)"/>
       <use xlink:href="#DejaVuSans-30" transform="translate(127.246094 0)"/>
       <use xlink:href="#DejaVuSans-30" transform="translate(190.869141 0)"/>
      </g>
     </g>
    </g>
    <g id="xtick_3">
     <g id="text_3">
      <!-- 10000 -->
      <g style="fill: #262626" transform="translate(269.68647 219.497422) scale(0.165 -0.165)">
       <use xlink:href="#DejaVuSans-31"/>
       <use xlink:href="#DejaVuSans-30" transform="translate(63.623047 0)"/>
       <use xlink:href="#DejaVuSans-30" transform="translate(127.246094 0)"/>
       <use xlink:href="#DejaVuSans-30" transform="translate(190.869141 0)"/>
       <use xlink:href="#DejaVuSans-30" transform="translate(254.492188 0)"/>
      </g>
     </g>
    </g>
    <g id="text_4">
     <!-- Patient count -->
     <g style="fill: #262626" transform="translate(151.217289 240.606094) scale(0.18 -0.18)">
      <defs>
       <path id="DejaVuSans-50" d="M 1259 4147 
L 1259 2394 
L 2053 2394 
Q 2494 2394 2734 2622 
Q 2975 2850 2975 3272 
Q 2975 3691 2734 3919 
Q 2494 4147 2053 4147 
L 1259 4147 
z
M 628 4666 
L 2053 4666 
Q 2838 4666 3239 4311 
Q 3641 3956 3641 3272 
Q 3641 2581 3239 2228 
Q 2838 1875 2053 1875 
L 1259 1875 
L 1259 0 
L 628 0 
L 628 4666 
z
" transform="scale(0.015625)"/>
       <path id="DejaVuSans-61" d="M 2194 1759 
Q 1497 1759 1228 1600 
Q 959 1441 959 1056 
Q 959 750 1161 570 
Q 1363 391 1709 391 
Q 2188 391 2477 730 
Q 2766 1069 2766 1631 
L 2766 1759 
L 2194 1759 
z
M 3341 1997 
L 3341 0 
L 2766 0 
L 2766 531 
Q 2569 213 2275 61 
Q 1981 -91 1556 -91 
Q 1019 -91 701 211 
Q 384 513 384 1019 
Q 384 1609 779 1909 
Q 1175 2209 1959 2209 
L 2766 2209 
L 2766 2266 
Q 2766 2663 2505 2880 
Q 2244 3097 1772 3097 
Q 1472 3097 1187 3025 
Q 903 2953 641 2809 
L 641 3341 
Q 956 3463 1253 3523 
Q 1550 3584 1831 3584 
Q 2591 3584 2966 3190 
Q 3341 2797 3341 1997 
z
" transform="scale(0.015625)"/>
       <path id="DejaVuSans-74" d="M 1172 4494 
L 1172 3500 
L 2356 3500 
L 2356 3053 
L 1172 3053 
L 1172 1153 
Q 1172 725 1289 603 
Q 1406 481 1766 481 
L 2356 481 
L 2356 0 
L 1766 0 
Q 1100 0 847 248 
Q 594 497 594 1153 
L 594 3053 
L 172 3053 
L 172 3500 
L 594 3500 
L 594 4494 
L 1172 4494 
z
" transform="scale(0.015625)"/>
       <path id="DejaVuSans-69" d="M 603 3500 
L 1178 3500 
L 1178 0 
L 603 0 
L 603 3500 
z
M 603 4863 
L 1178 4863 
L 1178 4134 
L 603 4134 
L 603 4863 
z
" transform="scale(0.015625)"/>
       <path id="DejaVuSans-65" d="M 3597 1894 
L 3597 1613 
L 953 1613 
Q 991 1019 1311 708 
Q 1631 397 2203 397 
Q 2534 397 2845 478 
Q 3156 559 3463 722 
L 3463 178 
Q 3153 47 2828 -22 
Q 2503 -91 2169 -91 
Q 1331 -91 842 396 
Q 353 884 353 1716 
Q 353 2575 817 3079 
Q 1281 3584 2069 3584 
Q 2775 3584 3186 3129 
Q 3597 2675 3597 1894 
z
M 3022 2063 
Q 3016 2534 2758 2815 
Q 2500 3097 2075 3097 
Q 1594 3097 1305 2825 
Q 1016 2553 972 2059 
L 3022 2063 
z
" transform="scale(0.015625)"/>
       <path id="DejaVuSans-6e" d="M 3513 2113 
L 3513 0 
L 2938 0 
L 2938 2094 
Q 2938 2591 2744 2837 
Q 2550 3084 2163 3084 
Q 1697 3084 1428 2787 
Q 1159 2491 1159 1978 
L 1159 0 
L 581 0 
L 581 3500 
L 1159 3500 
L 1159 2956 
Q 1366 3272 1645 3428 
Q 1925 3584 2291 3584 
Q 2894 3584 3203 3211 
Q 3513 2838 3513 2113 
z
" transform="scale(0.015625)"/>
       <path id="DejaVuSans-20" transform="scale(0.015625)"/>
       <path id="DejaVuSans-63" d="M 3122 3366 
L 3122 2828 
Q 2878 2963 2633 3030 
Q 2388 3097 2138 3097 
Q 1578 3097 1268 2742 
Q 959 2388 959 1747 
Q 959 1106 1268 751 
Q 1578 397 2138 397 
Q 2388 397 2633 464 
Q 2878 531 3122 666 
L 3122 134 
Q 2881 22 2623 -34 
Q 2366 -91 2075 -91 
Q 1284 -91 818 406 
Q 353 903 353 1747 
Q 353 2603 823 3093 
Q 1294 3584 2113 3584 
Q 2378 3584 2631 3529 
Q 2884 3475 3122 3366 
z
" transform="scale(0.015625)"/>
       <path id="DejaVuSans-6f" d="M 1959 3097 
Q 1497 3097 1228 2736 
Q 959 2375 959 1747 
Q 959 1119 1226 758 
Q 1494 397 1959 397 
Q 2419 397 2687 759 
Q 2956 1122 2956 1747 
Q 2956 2369 2687 2733 
Q 2419 3097 1959 3097 
z
M 1959 3584 
Q 2709 3584 3137 3096 
Q 3566 2609 3566 1747 
Q 3566 888 3137 398 
Q 2709 -91 1959 -91 
Q 1206 -91 779 398 
Q 353 888 353 1747 
Q 353 2609 779 3096 
Q 1206 3584 1959 3584 
z
" transform="scale(0.015625)"/>
       <path id="DejaVuSans-75" d="M 544 1381 
L 544 3500 
L 1119 3500 
L 1119 1403 
Q 1119 906 1312 657 
Q 1506 409 1894 409 
Q 2359 409 2629 706 
Q 2900 1003 2900 1516 
L 2900 3500 
L 3475 3500 
L 3475 0 
L 2900 0 
L 2900 538 
Q 2691 219 2414 64 
Q 2138 -91 1772 -91 
Q 1169 -91 856 284 
Q 544 659 544 1381 
z
M 1991 3584 
L 1991 3584 
z
" transform="scale(0.015625)"/>
      </defs>
      <use xlink:href="#DejaVuSans-50"/>
      <use xlink:href="#DejaVuSans-61" transform="translate(55.802734 0)"/>
      <use xlink:href="#DejaVuSans-74" transform="translate(117.082031 0)"/>
      <use xlink:href="#DejaVuSans-69" transform="translate(156.291016 0)"/>
      <use xlink:href="#DejaVuSans-65" transform="translate(184.074219 0)"/>
      <use xlink:href="#DejaVuSans-6e" transform="translate(245.597656 0)"/>
      <use xlink:href="#DejaVuSans-74" transform="translate(308.976562 0)"/>
      <use xlink:href="#DejaVuSans-20" transform="translate(348.185547 0)"/>
      <use xlink:href="#DejaVuSans-63" transform="translate(379.972656 0)"/>
      <use xlink:href="#DejaVuSans-6f" transform="translate(434.953125 0)"/>
      <use xlink:href="#DejaVuSans-75" transform="translate(496.134766 0)"/>
      <use xlink:href="#DejaVuSans-6e" transform="translate(559.513672 0)"/>
      <use xlink:href="#DejaVuSans-74" transform="translate(622.892578 0)"/>
     </g>
    </g>
   </g>
   <g id="matplotlib.axis_2">
    <g id="ytick_1">
     <g id="line2d_1">
      <path d="M 83.113125 194.46 
L 338.495515 194.46 
" clip-path="url(#pd5981c3fa6)" style="fill: none; stroke: #cccccc; stroke-width: 1.5; stroke-linecap: round"/>
     </g>
     <g id="text_5">
      <!-- 0 -->
      <g style="fill: #262626" transform="translate(60.115 200.728711) scale(0.165 -0.165)">
       <use xlink:href="#DejaVuSans-30"/>
      </g>
     </g>
    </g>
    <g id="ytick_2">
     <g id="line2d_2">
      <path d="M 83.113125 151.623979 
L 338.495515 151.623979 
" clip-path="url(#pd5981c3fa6)" style="fill: none; stroke: #cccccc; stroke-width: 1.5; stroke-linecap: round"/>
     </g>
     <g id="text_6">
      <!-- 1000 -->
      <g style="fill: #262626" transform="translate(28.620625 157.89269) scale(0.165 -0.165)">
       <use xlink:href="#DejaVuSans-31"/>
       <use xlink:href="#DejaVuSans-30" transform="translate(63.623047 0)"/>
       <use xlink:href="#DejaVuSans-30" transform="translate(127.246094 0)"/>
       <use xlink:href="#DejaVuSans-30" transform="translate(190.869141 0)"/>
      </g>
     </g>
    </g>
    <g id="ytick_3">
     <g id="line2d_3">
      <path d="M 83.113125 108.787958 
L 338.495515 108.787958 
" clip-path="url(#pd5981c3fa6)" style="fill: none; stroke: #cccccc; stroke-width: 1.5; stroke-linecap: round"/>
     </g>
     <g id="text_7">
      <!-- 2000 -->
      <g style="fill: #262626" transform="translate(28.620625 115.056669) scale(0.165 -0.165)">
       <defs>
        <path id="DejaVuSans-32" d="M 1228 531 
L 3431 531 
L 3431 0 
L 469 0 
L 469 531 
Q 828 903 1448 1529 
Q 2069 2156 2228 2338 
Q 2531 2678 2651 2914 
Q 2772 3150 2772 3378 
Q 2772 3750 2511 3984 
Q 2250 4219 1831 4219 
Q 1534 4219 1204 4116 
Q 875 4013 500 3803 
L 500 4441 
Q 881 4594 1212 4672 
Q 1544 4750 1819 4750 
Q 2544 4750 2975 4387 
Q 3406 4025 3406 3419 
Q 3406 3131 3298 2873 
Q 3191 2616 2906 2266 
Q 2828 2175 2409 1742 
Q 1991 1309 1228 531 
z
" transform="scale(0.015625)"/>
       </defs>
       <use xlink:href="#DejaVuSans-32"/>
       <use xlink:href="#DejaVuSans-30" transform="translate(63.623047 0)"/>
       <use xlink:href="#DejaVuSans-30" transform="translate(127.246094 0)"/>
       <use xlink:href="#DejaVuSans-30" transform="translate(190.869141 0)"/>
      </g>
     </g>
    </g>
    <g id="ytick_4">
     <g id="line2d_4">
      <path d="M 83.113125 65.951936 
L 338.495515 65.951936 
" clip-path="url(#pd5981c3fa6)" style="fill: none; stroke: #cccccc; stroke-width: 1.5; stroke-linecap: round"/>
     </g>
     <g id="text_8">
      <!-- 3000 -->
      <g style="fill: #262626" transform="translate(28.620625 72.220647) scale(0.165 -0.165)">
       <defs>
        <path id="DejaVuSans-33" d="M 2597 2516 
Q 3050 2419 3304 2112 
Q 3559 1806 3559 1356 
Q 3559 666 3084 287 
Q 2609 -91 1734 -91 
Q 1441 -91 1130 -33 
Q 819 25 488 141 
L 488 750 
Q 750 597 1062 519 
Q 1375 441 1716 441 
Q 2309 441 2620 675 
Q 2931 909 2931 1356 
Q 2931 1769 2642 2001 
Q 2353 2234 1838 2234 
L 1294 2234 
L 1294 2753 
L 1863 2753 
Q 2328 2753 2575 2939 
Q 2822 3125 2822 3475 
Q 2822 3834 2567 4026 
Q 2313 4219 1838 4219 
Q 1578 4219 1281 4162 
Q 984 4106 628 3988 
L 628 4550 
Q 988 4650 1302 4700 
Q 1616 4750 1894 4750 
Q 2613 4750 3031 4423 
Q 3450 4097 3450 3541 
Q 3450 3153 3228 2886 
Q 3006 2619 2597 2516 
z
" transform="scale(0.015625)"/>
       </defs>
       <use xlink:href="#DejaVuSans-33"/>
       <use xlink:href="#DejaVuSans-30" transform="translate(63.623047 0)"/>
       <use xlink:href="#DejaVuSans-30" transform="translate(127.246094 0)"/>
       <use xlink:href="#DejaVuSans-30" transform="translate(190.869141 0)"/>
      </g>
     </g>
    </g>
    <g id="text_9">
     <!-- Memory (MiB) -->
     <g style="fill: #262626" transform="translate(20.877187 185.836875) rotate(-90) scale(0.18 -0.18)">
      <defs>
       <path id="DejaVuSans-4d" d="M 628 4666 
L 1569 4666 
L 2759 1491 
L 3956 4666 
L 4897 4666 
L 4897 0 
L 4281 0 
L 4281 4097 
L 3078 897 
L 2444 897 
L 1241 4097 
L 1241 0 
L 628 0 
L 628 4666 
z
" transform="scale(0.015625)"/>
       <path id="DejaVuSans-6d" d="M 3328 2828 
Q 3544 3216 3844 3400 
Q 4144 3584 4550 3584 
Q 5097 3584 5394 3201 
Q 5691 2819 5691 2113 
L 5691 0 
L 5113 0 
L 5113 2094 
Q 5113 2597 4934 2840 
Q 4756 3084 4391 3084 
Q 3944 3084 3684 2787 
Q 3425 2491 3425 1978 
L 3425 0 
L 2847 0 
L 2847 2094 
Q 2847 2600 2669 2842 
Q 2491 3084 2119 3084 
Q 1678 3084 1418 2786 
Q 1159 2488 1159 1978 
L 1159 0 
L 581 0 
L 581 3500 
L 1159 3500 
L 1159 2956 
Q 1356 3278 1631 3431 
Q 1906 3584 2284 3584 
Q 2666 3584 2933 3390 
Q 3200 3197 3328 2828 
z
" transform="scale(0.015625)"/>
       <path id="DejaVuSans-72" d="M 2631 2963 
Q 2534 3019 2420 3045 
Q 2306 3072 2169 3072 
Q 1681 3072 1420 2755 
Q 1159 2438 1159 1844 
L 1159 0 
L 581 0 
L 581 3500 
L 1159 3500 
L 1159 2956 
Q 1341 3275 1631 3429 
Q 1922 3584 2338 3584 
Q 2397 3584 2469 3576 
Q 2541 3569 2628 3553 
L 2631 2963 
z
" transform="scale(0.015625)"/>
       <path id="DejaVuSans-79" d="M 2059 -325 
Q 1816 -950 1584 -1140 
Q 1353 -1331 966 -1331 
L 506 -1331 
L 506 -850 
L 844 -850 
Q 1081 -850 1212 -737 
Q 1344 -625 1503 -206 
L 1606 56 
L 191 3500 
L 800 3500 
L 1894 763 
L 2988 3500 
L 3597 3500 
L 2059 -325 
z
" transform="scale(0.015625)"/>
       <path id="DejaVuSans-28" d="M 1984 4856 
Q 1566 4138 1362 3434 
Q 1159 2731 1159 2009 
Q 1159 1288 1364 580 
Q 1569 -128 1984 -844 
L 1484 -844 
Q 1016 -109 783 600 
Q 550 1309 550 2009 
Q 550 2706 781 3412 
Q 1013 4119 1484 4856 
L 1984 4856 
z
" transform="scale(0.015625)"/>
       <path id="DejaVuSans-42" d="M 1259 2228 
L 1259 519 
L 2272 519 
Q 2781 519 3026 730 
Q 3272 941 3272 1375 
Q 3272 1813 3026 2020 
Q 2781 2228 2272 2228 
L 1259 2228 
z
M 1259 4147 
L 1259 2741 
L 2194 2741 
Q 2656 2741 2882 2914 
Q 3109 3088 3109 3444 
Q 3109 3797 2882 3972 
Q 2656 4147 2194 4147 
L 1259 4147 
z
M 628 4666 
L 2241 4666 
Q 2963 4666 3353 4366 
Q 3744 4066 3744 3513 
Q 3744 3084 3544 2831 
Q 3344 2578 2956 2516 
Q 3422 2416 3680 2098 
Q 3938 1781 3938 1306 
Q 3938 681 3513 340 
Q 3088 0 2303 0 
L 628 0 
L 628 4666 
z
" transform="scale(0.015625)"/>
       <path id="DejaVuSans-29" d="M 513 4856 
L 1013 4856 
Q 1481 4119 1714 3412 
Q 1947 2706 1947 2009 
Q 1947 1309 1714 600 
Q 1481 -109 1013 -844 
L 513 -844 
Q 928 -128 1133 580 
Q 1338 1288 1338 2009 
Q 1338 2731 1133 3434 
Q 928 4138 513 4856 
z
" transform="scale(0.015625)"/>
      </defs>
      <use xlink:href="#DejaVuSans-4d"/>
      <use xlink:href="#DejaVuSans-65" transform="translate(86.279297 0)"/>
      <use xlink:href="#DejaVuSans-6d" transform="translate(147.802734 0)"/>
      <use xlink:href="#DejaVuSans-6f" transform="translate(245.214844 0)"/>
      <use xlink:href="#DejaVuSans-72" transform="translate(306.396484 0)"/>
      <use xlink:href="#DejaVuSans-79" transform="translate(347.509766 0)"/>
      <use xlink:href="#DejaVuSans-20" transform="translate(406.689453 0)"/>
      <use xlink:href="#DejaVuSans-28" transform="translate(438.476562 0)"/>
      <use xlink:href="#DejaVuSans-4d" transform="translate(477.490234 0)"/>
      <use xlink:href="#DejaVuSans-69" transform="translate(563.769531 0)"/>
      <use xlink:href="#DejaVuSans-42" transform="translate(591.552734 0)"/>
      <use xlink:href="#DejaVuSans-29" transform="translate(660.15625 0)"/>
     </g>
    </g>
   </g>
   <g id="patch_3">
    <path d="M 91.625871 194.46 
L 114.326528 194.46 
L 114.326528 168.975423 
L 91.625871 168.975423 
z
" clip-path="url(#pd5981c3fa6)" style="fill: #5875a4; stroke: #ffffff; stroke-width: 1.5; stroke-linejoin: miter"/>
   </g>
   <g id="patch_4">
    <path d="M 176.753335 194.46 
L 199.453991 194.46 
L 199.453991 170.357599 
L 176.753335 170.357599 
z
" clip-path="url(#pd5981c3fa6)" style="fill: #5875a4; stroke: #ffffff; stroke-width: 1.5; stroke-linejoin: miter"/>
   </g>
   <g id="patch_5">
    <path d="M 261.880798 194.46 
L 284.581455 194.46 
L 284.581455 167.117768 
L 261.880798 167.117768 
z
" clip-path="url(#pd5981c3fa6)" style="fill: #5875a4; stroke: #ffffff; stroke-width: 1.5; stroke-linejoin: miter"/>
   </g>
   <g id="patch_6">
    <path d="M 114.326528 194.46 
L 137.027185 194.46 
L 137.027185 172.339479 
L 114.326528 172.339479 
z
" clip-path="url(#pd5981c3fa6)" style="fill: #cc8963; stroke: #ffffff; stroke-width: 1.5; stroke-linejoin: miter"/>
   </g>
   <g id="patch_7">
    <path d="M 199.453991 194.46 
L 222.154648 194.46 
L 222.154648 166.633721 
L 199.453991 166.633721 
z
" clip-path="url(#pd5981c3fa6)" style="fill: #cc8963; stroke: #ffffff; stroke-width: 1.5; stroke-linejoin: miter"/>
   </g>
   <g id="patch_8">
    <path d="M 284.581455 194.46 
L 307.282111 194.46 
L 307.282111 166.51378 
L 284.581455 166.51378 
z
" clip-path="url(#pd5981c3fa6)" style="fill: #cc8963; stroke: #ffffff; stroke-width: 1.5; stroke-linejoin: miter"/>
   </g>
   <g id="patch_9">
    <path d="M 137.027185 194.46 
L 159.727842 194.46 
L 159.727842 148.212632 
L 137.027185 148.212632 
z
" clip-path="url(#pd5981c3fa6)" style="fill: #5f9e6e; stroke: #ffffff; stroke-width: 1.5; stroke-linejoin: miter"/>
   </g>
   <g id="patch_10">
    <path d="M 222.154648 194.46 
L 244.855305 194.46 
L 244.855305 116.528141 
L 222.154648 116.528141 
z
" clip-path="url(#pd5981c3fa6)" style="fill: #5f9e6e; stroke: #ffffff; stroke-width: 1.5; stroke-linejoin: miter"/>
   </g>
   <g id="patch_11">
    <path d="M 307.282111 194.46 
L 329.982768 194.46 
L 329.982768 62.341374 
L 307.282111 62.341374 
z
" clip-path="url(#pd5981c3fa6)" style="fill: #5f9e6e; stroke: #ffffff; stroke-width: 1.5; stroke-linejoin: miter"/>
   </g>
   <g id="line2d_5">
    <path d="M 102.9762 171.932536 
L 102.9762 166.432391 
" clip-path="url(#pd5981c3fa6)" style="fill: none; stroke: #424242; stroke-width: 3.375; stroke-linecap: round"/>
   </g>
   <g id="line2d_6">
    <path d="M 188.103663 171.045831 
L 188.103663 169.006836 
" clip-path="url(#pd5981c3fa6)" style="fill: none; stroke: #424242; stroke-width: 3.375; stroke-linecap: round"/>
   </g>
   <g id="line2d_7">
    <path d="M 273.231126 168.715551 
L 273.231126 165.100191 
" clip-path="url(#pd5981c3fa6)" style="fill: none; stroke: #424242; stroke-width: 3.375; stroke-linecap: round"/>
   </g>
   <g id="line2d_8">
    <path d="M 125.676857 172.999153 
L 125.676857 171.932536 
" clip-path="url(#pd5981c3fa6)" style="fill: none; stroke: #424242; stroke-width: 3.375; stroke-linecap: round"/>
   </g>
   <g id="line2d_9">
    <path d="M 210.80432 169.747899 
L 210.80432 161.754698 
" clip-path="url(#pd5981c3fa6)" style="fill: none; stroke: #424242; stroke-width: 3.375; stroke-linecap: round"/>
   </g>
   <g id="line2d_10">
    <path d="M 295.931783 168.715551 
L 295.931783 162.585717 
" clip-path="url(#pd5981c3fa6)" style="fill: none; stroke: #424242; stroke-width: 3.375; stroke-linecap: round"/>
   </g>
   <g id="line2d_11">
    <path d="M 148.377513 148.665895 
L 148.377513 147.744749 
" clip-path="url(#pd5981c3fa6)" style="fill: none; stroke: #424242; stroke-width: 3.375; stroke-linecap: round"/>
   </g>
   <g id="line2d_12">
    <path d="M 233.504977 120.066511 
L 233.504977 114.057131 
" clip-path="url(#pd5981c3fa6)" style="fill: none; stroke: #424242; stroke-width: 3.375; stroke-linecap: round"/>
   </g>
   <g id="line2d_13">
    <path d="M 318.63244 65.63118 
L 318.63244 58.174286 
" clip-path="url(#pd5981c3fa6)" style="fill: none; stroke: #424242; stroke-width: 3.375; stroke-linecap: round"/>
   </g>
   <g id="patch_12">
    <path d="M 83.113125 194.46 
L 83.113125 51.36 
" style="fill: none; stroke: #cccccc; stroke-width: 1.875; stroke-linejoin: miter; stroke-linecap: square"/>
   </g>
   <g id="patch_13">
    <path d="M 83.113125 194.46 
L 338.495515 194.46 
" style="fill: none; stroke: #cccccc; stroke-width: 1.875; stroke-linejoin: miter; stroke-linecap: square"/>
   </g>
   <g id="text_10">
    <!-- conc=32 | peak -->
    <g style="fill: #262626" transform="translate(139.971507 45.36) scale(0.18 -0.18)">
     <defs>
      <path id="DejaVuSans-3d" d="M 678 2906 
L 4684 2906 
L 4684 2381 
L 678 2381 
L 678 2906 
z
M 678 1631 
L 4684 1631 
L 4684 1100 
L 678 1100 
L 678 1631 
z
" transform="scale(0.015625)"/>
      <path id="DejaVuSans-7c" d="M 1344 4891 
L 1344 -1509 
L 813 -1509 
L 813 4891 
L 1344 4891 
z
" transform="scale(0.015625)"/>
      <path id="DejaVuSans-70" d="M 1159 525 
L 1159 -1331 
L 581 -1331 
L 581 3500 
L 1159 3500 
L 1159 2969 
Q 1341 3281 1617 3432 
Q 1894 3584 2278 3584 
Q 2916 3584 3314 3078 
Q 3713 2572 3713 1747 
Q 3713 922 3314 415 
Q 2916 -91 2278 -91 
Q 1894 -91 1617 61 
Q 1341 213 1159 525 
z
M 3116 1747 
Q 3116 2381 2855 2742 
Q 2594 3103 2138 3103 
Q 1681 3103 1420 2742 
Q 1159 2381 1159 1747 
Q 1159 1113 1420 752 
Q 1681 391 2138 391 
Q 2594 391 2855 752 
Q 3116 1113 3116 1747 
z
" transform="scale(0.015625)"/>
      <path id="DejaVuSans-6b" d="M 581 4863 
L 1159 4863 
L 1159 1991 
L 2875 3500 
L 3609 3500 
L 1753 1863 
L 3688 0 
L 2938 0 
L 1159 1709 
L 1159 0 
L 581 0 
L 581 4863 
z
" transform="scale(0.015625)"/>
     </defs>
     <use xlink:href="#DejaVuSans-63"/>
     <use xlink:href="#DejaVuSans-6f" transform="translate(54.980469 0)"/>
     <use xlink:href="#DejaVuSans-6e" transform="translate(116.162109 0)"/>
     <use xlink:href="#DejaVuSans-63" transform="translate(179.541016 0)"/>
     <use xlink:href="#DejaVuSans-3d" transform="translate(234.521484 0)"/>
     <use xlink:href="#DejaVuSans-33" transform="translate(318.310547 0)"/>
     <use xlink:href="#DejaVuSans-32" transform="translate(381.933594 0)"/>
     <use xlink:href="#DejaVuSans-20" transform="translate(445.556641 0)"/>
     <use xlink:href="#DejaVuSans-7c" transform="translate(477.34375 0)"/>
     <use xlink:href="#DejaVuSans-20" transform="translate(511.035156 0)"/>
     <use xlink:href="#DejaVuSans-70" transform="translate(542.822266 0)"/>
     <use xlink:href="#DejaVuSans-65" transform="translate(606.298828 0)"/>
     <use xlink:href="#DejaVuSans-61" transform="translate(667.822266 0)"/>
     <use xlink:href="#DejaVuSans-6b" transform="translate(729.101562 0)"/>
    </g>
   </g>
  </g>
  <g id="axes_2">
   <g id="patch_14">
    <path d="M 411.696303 194.46 
L 667.078693 194.46 
L 667.078693 51.36 
L 411.696303 51.36 
z
" style="fill: #ffffff"/>
   </g>
   <g id="matplotlib.axis_3">
    <g id="xtick_4">
     <g id="text_11">
      <!-- 100 -->
      <g style="fill: #262626" transform="translate(438.512847 219.497422) scale(0.165 -0.165)">
       <use xlink:href="#DejaVuSans-31"/>
       <use xlink:href="#DejaVuSans-30" transform="translate(63.623047 0)"/>
       <use xlink:href="#DejaVuSans-30" transform="translate(127.246094 0)"/>
      </g>
     </g>
    </g>
    <g id="xtick_5">
     <g id="text_12">
      <!-- 1000 -->
      <g style="fill: #262626" transform="translate(518.391248 219.497422) scale(0.165 -0.165)">
       <use xlink:href="#DejaVuSans-31"/>
       <use xlink:href="#DejaVuSans-30" transform="translate(63.623047 0)"/>
       <use xlink:href="#DejaVuSans-30" transform="translate(127.246094 0)"/>
       <use xlink:href="#DejaVuSans-30" transform="translate(190.869141 0)"/>
      </g>
     </g>
    </g>
    <g id="xtick_6">
     <g id="text_13">
      <!-- 10000 -->
      <g style="fill: #262626" transform="translate(598.269649 219.497422) scale(0.165 -0.165)">
       <use xlink:href="#DejaVuSans-31"/>
       <use xlink:href="#DejaVuSans-30" transform="translate(63.623047 0)"/>
       <use xlink:href="#DejaVuSans-30" transform="translate(127.246094 0)"/>
       <use xlink:href="#DejaVuSans-30" transform="translate(190.869141 0)"/>
       <use xlink:href="#DejaVuSans-30" transform="translate(254.492188 0)"/>
      </g>
     </g>
    </g>
    <g id="text_14">
     <!-- Patient count -->
     <g style="fill: #262626" transform="translate(479.800467 240.606094) scale(0.18 -0.18)">
      <use xlink:href="#DejaVuSans-50"/>
      <use xlink:href="#DejaVuSans-61" transform="translate(55.802734 0)"/>
      <use xlink:href="#DejaVuSans-74" transform="translate(117.082031 0)"/>
      <use xlink:href="#DejaVuSans-69" transform="translate(156.291016 0)"/>
      <use xlink:href="#DejaVuSans-65" transform="translate(184.074219 0)"/>
      <use xlink:href="#DejaVuSans-6e" transform="translate(245.597656 0)"/>
      <use xlink:href="#DejaVuSans-74" transform="translate(308.976562 0)"/>
      <use xlink:href="#DejaVuSans-20" transform="translate(348.185547 0)"/>
      <use xlink:href="#DejaVuSans-63" transform="translate(379.972656 0)"/>
      <use xlink:href="#DejaVuSans-6f" transform="translate(434.953125 0)"/>
      <use xlink:href="#DejaVuSans-75" transform="translate(496.134766 0)"/>
      <use xlink:href="#DejaVuSans-6e" transform="translate(559.513672 0)"/>
      <use xlink:href="#DejaVuSans-74" transform="translate(622.892578 0)"/>
     </g>
    </g>
   </g>
   <g id="matplotlib.axis_4">
    <g id="ytick_5">
     <g id="line2d_14">
      <path d="M 411.696303 194.46 
L 667.078693 194.46 
" clip-path="url(#pbd0dc6516c)" style="fill: none; stroke: #cccccc; stroke-width: 1.5; stroke-linecap: round"/>
     </g>
     <g id="text_15">
      <!-- 0 -->
      <g style="fill: #262626" transform="translate(388.698178 200.728711) scale(0.165 -0.165)">
       <use xlink:href="#DejaVuSans-30"/>
      </g>
     </g>
    </g>
    <g id="ytick_6">
     <g id="line2d_15">
      <path d="M 411.696303 148.477221 
L 667.078693 148.477221 
" clip-path="url(#pbd0dc6516c)" style="fill: none; stroke: #cccccc; stroke-width: 1.5; stroke-linecap: round"/>
     </g>
     <g id="text_16">
      <!-- 1000 -->
      <g style="fill: #262626" transform="translate(357.203803 154.745932) scale(0.165 -0.165)">
       <use xlink:href="#DejaVuSans-31"/>
       <use xlink:href="#DejaVuSans-30" transform="translate(63.623047 0)"/>
       <use xlink:href="#DejaVuSans-30" transform="translate(127.246094 0)"/>
       <use xlink:href="#DejaVuSans-30" transform="translate(190.869141 0)"/>
      </g>
     </g>
    </g>
    <g id="ytick_7">
     <g id="line2d_16">
      <path d="M 411.696303 102.494441 
L 667.078693 102.494441 
" clip-path="url(#pbd0dc6516c)" style="fill: none; stroke: #cccccc; stroke-width: 1.5; stroke-linecap: round"/>
     </g>
     <g id="text_17">
      <!-- 2000 -->
      <g style="fill: #262626" transform="translate(357.203803 108.763152) scale(0.165 -0.165)">
       <use xlink:href="#DejaVuSans-32"/>
       <use xlink:href="#DejaVuSans-30" transform="translate(63.623047 0)"/>
       <use xlink:href="#DejaVuSans-30" transform="translate(127.246094 0)"/>
       <use xlink:href="#DejaVuSans-30" transform="translate(190.869141 0)"/>
      </g>
     </g>
    </g>
    <g id="ytick_8">
     <g id="line2d_17">
      <path d="M 411.696303 56.511662 
L 667.078693 56.511662 
" clip-path="url(#pbd0dc6516c)" style="fill: none; stroke: #cccccc; stroke-width: 1.5; stroke-linecap: round"/>
     </g>
     <g id="text_18">
      <!-- 3000 -->
      <g style="fill: #262626" transform="translate(357.203803 62.780373) scale(0.165 -0.165)">
       <use xlink:href="#DejaVuSans-33"/>
       <use xlink:href="#DejaVuSans-30" transform="translate(63.623047 0)"/>
       <use xlink:href="#DejaVuSans-30" transform="translate(127.246094 0)"/>
       <use xlink:href="#DejaVuSans-30" transform="translate(190.869141 0)"/>
      </g>
     </g>
    </g>
   </g>
   <g id="patch_15">
    <path d="M 420.20905 194.46 
L 442.909706 194.46 
L 442.909706 171.699681 
L 420.20905 171.699681 
z
" clip-path="url(#pbd0dc6516c)" style="fill: #5875a4; stroke: #ffffff; stroke-width: 1.5; stroke-linejoin: miter"/>
   </g>
   <g id="patch_16">
    <path d="M 505.336513 194.46 
L 528.03717 194.46 
L 528.03717 169.935681 
L 505.336513 169.935681 
z
" clip-path="url(#pbd0dc6516c)" style="fill: #5875a4; stroke: #ffffff; stroke-width: 1.5; stroke-linejoin: miter"/>
   </g>
   <g id="patch_17">
    <path d="M 590.463976 194.46 
L 613.164633 194.46 
L 613.164633 166.213229 
L 590.463976 166.213229 
z
" clip-path="url(#pbd0dc6516c)" style="fill: #5875a4; stroke: #ffffff; stroke-width: 1.5; stroke-linejoin: miter"/>
   </g>
   <g id="patch_18">
    <path d="M 442.909706 194.46 
L 465.610363 194.46 
L 465.610363 172.345209 
L 442.909706 172.345209 
z
" clip-path="url(#pbd0dc6516c)" style="fill: #cc8963; stroke: #ffffff; stroke-width: 1.5; stroke-linejoin: miter"/>
   </g>
   <g id="patch_19">
    <path d="M 528.03717 194.46 
L 550.737826 194.46 
L 550.737826 166.044218 
L 528.03717 166.044218 
z
" clip-path="url(#pbd0dc6516c)" style="fill: #cc8963; stroke: #ffffff; stroke-width: 1.5; stroke-linejoin: miter"/>
   </g>
   <g id="patch_20">
    <path d="M 613.164633 194.46 
L 635.86529 194.46 
L 635.86529 165.579103 
L 613.164633 165.579103 
z
" clip-path="url(#pbd0dc6516c)" style="fill: #cc8963; stroke: #ffffff; stroke-width: 1.5; stroke-linejoin: miter"/>
   </g>
   <g id="patch_21">
    <path d="M 465.610363 194.46 
L 488.31102 194.46 
L 488.31102 154.99662 
L 465.610363 154.99662 
z
" clip-path="url(#pbd0dc6516c)" style="fill: #5f9e6e; stroke: #ffffff; stroke-width: 1.5; stroke-linejoin: miter"/>
   </g>
   <g id="patch_22">
    <path d="M 550.737826 194.46 
L 573.438483 194.46 
L 573.438483 119.07251 
L 550.737826 119.07251 
z
" clip-path="url(#pbd0dc6516c)" style="fill: #5f9e6e; stroke: #ffffff; stroke-width: 1.5; stroke-linejoin: miter"/>
   </g>
   <g id="patch_23">
    <path d="M 635.86529 194.46 
L 658.565947 194.46 
L 658.565947 61.99322 
L 635.86529 61.99322 
z
" clip-path="url(#pbd0dc6516c)" style="fill: #5f9e6e; stroke: #ffffff; stroke-width: 1.5; stroke-linejoin: miter"/>
   </g>
   <g id="patch_24">
    <path d="M 454.260035 194.46 
L 454.260035 194.46 
L 454.260035 194.46 
L 454.260035 194.46 
z
" clip-path="url(#pbd0dc6516c)" style="fill: #5875a4; stroke: #ffffff; stroke-width: 1.5; stroke-linejoin: miter"/>
   </g>
   <g id="patch_25">
    <path d="M 454.260035 194.46 
L 454.260035 194.46 
L 454.260035 194.46 
L 454.260035 194.46 
z
" clip-path="url(#pbd0dc6516c)" style="fill: #cc8963; stroke: #ffffff; stroke-width: 1.5; stroke-linejoin: miter"/>
   </g>
   <g id="patch_26">
    <path d="M 454.260035 194.46 
L 454.260035 194.46 
L 454.260035 194.46 
L 454.260035 194.46 
z
" clip-path="url(#pbd0dc6516c)" style="fill: #5f9e6e; stroke: #ffffff; stroke-width: 1.5; stroke-linejoin: miter"/>
   </g>
   <g id="line2d_18">
    <path d="M 431.559378 174.694093 
L 431.559378 170.13465 
" clip-path="url(#pbd0dc6516c)" style="fill: none; stroke: #424242; stroke-width: 3.375; stroke-linecap: round"/>
   </g>
   <g id="line2d_19">
    <path d="M 516.686841 170.630683 
L 516.686841 168.982092 
" clip-path="url(#pbd0dc6516c)" style="fill: none; stroke: #424242; stroke-width: 3.375; stroke-linecap: round"/>
   </g>
   <g id="line2d_20">
    <path d="M 601.814304 167.707797 
L 601.814304 163.608563 
" clip-path="url(#pbd0dc6516c)" style="fill: none; stroke: #424242; stroke-width: 3.375; stroke-linecap: round"/>
   </g>
   <g id="line2d_21">
    <path d="M 454.260035 172.694511 
L 454.260035 172.082021 
" clip-path="url(#pbd0dc6516c)" style="fill: none; stroke: #424242; stroke-width: 3.375; stroke-linecap: round"/>
   </g>
   <g id="line2d_22">
    <path d="M 539.387498 169.092273 
L 539.387498 161.395021 
" clip-path="url(#pbd0dc6516c)" style="fill: none; stroke: #424242; stroke-width: 3.375; stroke-linecap: round"/>
   </g>
   <g id="line2d_23">
    <path d="M 624.514961 167.239207 
L 624.514961 162.521981 
" clip-path="url(#pbd0dc6516c)" style="fill: none; stroke: #424242; stroke-width: 3.375; stroke-linecap: round"/>
   </g>
   <g id="line2d_24">
    <path d="M 476.960692 157.133454 
L 476.960692 153.922924 
" clip-path="url(#pbd0dc6516c)" style="fill: none; stroke: #424242; stroke-width: 3.375; stroke-linecap: round"/>
   </g>
   <g id="line2d_25">
    <path d="M 562.088155 122.692151 
L 562.088155 116.881141 
" clip-path="url(#pbd0dc6516c)" style="fill: none; stroke: #424242; stroke-width: 3.375; stroke-linecap: round"/>
   </g>
   <g id="line2d_26">
    <path d="M 647.215618 64.69372 
L 647.215618 58.174286 
" clip-path="url(#pbd0dc6516c)" style="fill: none; stroke: #424242; stroke-width: 3.375; stroke-linecap: round"/>
   </g>
   <g id="patch_27">
    <path d="M 411.696303 194.46 
L 411.696303 51.36 
" style="fill: none; stroke: #cccccc; stroke-width: 1.875; stroke-linejoin: miter; stroke-linecap: square"/>
   </g>
   <g id="patch_28">
    <path d="M 411.696303 194.46 
L 667.078693 194.46 
" style="fill: none; stroke: #cccccc; stroke-width: 1.875; stroke-linejoin: miter; stroke-linecap: square"/>
   </g>
   <g id="text_19">
    <!-- conc=32 | mean -->
    <g style="fill: #262626" transform="translate(465.009529 45.36) scale(0.18 -0.18)">
     <use xlink:href="#DejaVuSans-63"/>
     <use xlink:href="#DejaVuSans-6f" transform="translate(54.980469 0)"/>
     <use xlink:href="#DejaVuSans-6e" transform="translate(116.162109 0)"/>
     <use xlink:href="#DejaVuSans-63" transform="translate(179.541016 0)"/>
     <use xlink:href="#DejaVuSans-3d" transform="translate(234.521484 0)"/>
     <use xlink:href="#DejaVuSans-33" transform="translate(318.310547 0)"/>
     <use xlink:href="#DejaVuSans-32" transform="translate(381.933594 0)"/>
     <use xlink:href="#DejaVuSans-20" transform="translate(445.556641 0)"/>
     <use xlink:href="#DejaVuSans-7c" transform="translate(477.34375 0)"/>
     <use xlink:href="#DejaVuSans-20" transform="translate(511.035156 0)"/>
     <use xlink:href="#DejaVuSans-6d" transform="translate(542.822266 0)"/>
     <use xlink:href="#DejaVuSans-65" transform="translate(640.234375 0)"/>
     <use xlink:href="#DejaVuSans-61" transform="translate(701.757812 0)"/>
     <use xlink:href="#DejaVuSans-6e" transform="translate(763.037109 0)"/>
    </g>
   </g>
  </g>
  <g id="text_20">
   <!-- Memory (MiB) — peak and mean per run -->
   <g style="fill: #262626" transform="translate(168.64733 23.612625) scale(0.216 -0.216)">
    <defs>
     <path id="DejaVuSans-2014" d="M 313 1978 
L 6088 1978 
L 6088 1528 
L 313 1528 
L 313 1978 
z
" transform="scale(0.015625)"/>
     <path id="DejaVuSans-64" d="M 2906 2969 
L 2906 4863 
L 3481 4863 
L 3481 0 
L 2906 0 
L 2906 525 
Q 2725 213 2448 61 
Q 2172 -91 1784 -91 
Q 1150 -91 751 415 
Q 353 922 353 1747 
Q 353 2572 751 3078 
Q 1150 3584 1784 3584 
Q 2172 3584 2448 3432 
Q 2725 3281 2906 2969 
z
M 947 1747 
Q 947 1113 1208 752 
Q 1469 391 1925 391 
Q 2381 391 2643 752 
Q 2906 1113 2906 1747 
Q 2906 2381 2643 2742 
Q 2381 3103 1925 3103 
Q 1469 3103 1208 2742 
Q 947 2381 947 1747 
z
" transform="scale(0.015625)"/>
    </defs>
    <use xlink:href="#DejaVuSans-4d"/>
    <use xlink:href="#DejaVuSans-65" transform="translate(86.279297 0)"/>
    <use xlink:href="#DejaVuSans-6d" transform="translate(147.802734 0)"/>
    <use xlink:href="#DejaVuSans-6f" transform="translate(245.214844 0)"/>
    <use xlink:href="#DejaVuSans-72" transform="translate(306.396484 0)"/>
    <use xlink:href="#DejaVuSans-79" transform="translate(347.509766 0)"/>
    <use xlink:href="#DejaVuSans-20" transform="translate(406.689453 0)"/>
    <use xlink:href="#DejaVuSans-28" transform="translate(438.476562 0)"/>
    <use xlink:href="#DejaVuSans-4d" transform="translate(477.490234 0)"/>
    <use xlink:href="#DejaVuSans-69" transform="translate(563.769531 0)"/>
    <use xlink:href="#DejaVuSans-42" transform="translate(591.552734 0)"/>
    <use xlink:href="#DejaVuSans-29" transform="translate(660.15625 0)"/>
    <use xlink:href="#DejaVuSans-20" transform="translate(699.169922 0)"/>
    <use xlink:href="#DejaVuSans-2014" transform="translate(730.957031 0)"/>
    <use xlink:href="#DejaVuSans-20" transform="translate(830.957031 0)"/>
    <use xlink:href="#DejaVuSans-70" transform="translate(862.744141 0)"/>
    <use xlink:href="#DejaVuSans-65" transform="translate(926.220703 0)"/>
    <use xlink:href="#DejaVuSans-61" transform="translate(987.744141 0)"/>
    <use xlink:href="#DejaVuSans-6b" transform="translate(1049.023438 0)"/>
    <use xlink:href="#DejaVuSans-20" transform="translate(1106.933594 0)"/>
    <use xlink:href="#DejaVuSans-61" transform="translate(1138.720703 0)"/>
    <use xlink:href="#DejaVuSans-6e" transform="translate(1200 0)"/>
    <use xlink:href="#DejaVuSans-64" transform="translate(1263.378906 0)"/>
    <use xlink:href="#DejaVuSans-20" transform="translate(1326.855469 0)"/>
    <use xlink:href="#DejaVuSans-6d" transform="translate(1358.642578 0)"/>
    <use xlink:href="#DejaVuSans-65" transform="translate(1456.054688 0)"/>
    <use xlink:href="#DejaVuSans-61" transform="translate(1517.578125 0)"/>
    <use xlink:href="#DejaVuSans-6e" transform="translate(1578.857422 0)"/>
    <use xlink:href="#DejaVuSans-20" transform="translate(1642.236328 0)"/>
    <use xlink:href="#DejaVuSans-70" transform="translate(1674.023438 0)"/>
    <use xlink:href="#DejaVuSans-65" transform="translate(1737.5 0)"/>
    <use xlink:href="#DejaVuSans-72" transform="translate(1799.023438 0)"/>
    <use xlink:href="#DejaVuSans-20" transform="translate(1840.136719 0)"/>
    <use xlink:href="#DejaVuSans-72" transform="translate(1871.923828 0)"/>
    <use xlink:href="#DejaVuSans-75" transform="translate(1913.037109 0)"/>
    <use xlink:href="#DejaVuSans-6e" transform="translate(1976.416016 0)"/>
   </g>
  </g>
  <g id="legend_1">
   <g id="text_21">
    <!-- agent -->
    <g style="fill: #262626" transform="translate(706.449338 94.413281) scale(0.18 -0.18)">
     <defs>
      <path id="DejaVuSans-67" d="M 2906 1791 
Q 2906 2416 2648 2759 
Q 2391 3103 1925 3103 
Q 1463 3103 1205 2759 
Q 947 2416 947 1791 
Q 947 1169 1205 825 
Q 1463 481 1925 481 
Q 2391 481 2648 825 
Q 2906 1169 2906 1791 
z
M 3481 434 
Q 3481 -459 3084 -895 
Q 2688 -1331 1869 -1331 
Q 1566 -1331 1297 -1286 
Q 1028 -1241 775 -1147 
L 775 -588 
Q 1028 -725 1275 -790 
Q 1522 -856 1778 -856 
Q 2344 -856 2625 -561 
Q 2906 -266 2906 331 
L 2906 616 
Q 2728 306 2450 153 
Q 2172 0 1784 0 
Q 1141 0 747 490 
Q 353 981 353 1791 
Q 353 2603 747 3093 
Q 1141 3584 1784 3584 
Q 2172 3584 2450 3431 
Q 2728 3278 2906 2969 
L 2906 3500 
L 3481 3500 
L 3481 434 
z
" transform="scale(0.015625)"/>
     </defs>
     <use xlink:href="#DejaVuSans-61"/>
     <use xlink:href="#DejaVuSans-67" transform="translate(61.279297 0)"/>
     <use xlink:href="#DejaVuSans-65" transform="translate(124.755859 0)"/>
     <use xlink:href="#DejaVuSans-6e" transform="translate(186.279297 0)"/>
     <use xlink:href="#DejaVuSans-74" transform="translate(249.658203 0)"/>
    </g>
   </g>
   <g id="patch_29">
    <path d="M 672.765783 118.944141 
L 705.765783 118.944141 
L 705.765783 107.394141 
L 672.765783 107.394141 
z
" style="fill: #5875a4; stroke: #ffffff; stroke-width: 1.5; stroke-linejoin: miter"/>
   </g>
   <g id="text_22">
    <!-- rd-agent -->
    <g style="fill: #262626" transform="translate(718.965783 118.944141) scale(0.165 -0.165)">
     <defs>
      <path id="DejaVuSans-2d" d="M 313 2009 
L 1997 2009 
L 1997 1497 
L 313 1497 
L 313 2009 
z
" transform="scale(0.015625)"/>
     </defs>
     <use xlink:href="#DejaVuSans-72"/>
     <use xlink:href="#DejaVuSans-64" transform="translate(39.363281 0)"/>
     <use xlink:href="#DejaVuSans-2d" transform="translate(102.839844 0)"/>
     <use xlink:href="#DejaVuSans-61" transform="translate(138.923828 0)"/>
     <use xlink:href="#DejaVuSans-67" transform="translate(200.203125 0)"/>
     <use xlink:href="#DejaVuSans-65" transform="translate(263.679688 0)"/>
     <use xlink:href="#DejaVuSans-6e" transform="translate(325.203125 0)"/>
     <use xlink:href="#DejaVuSans-74" transform="translate(388.582031 0)"/>
    </g>
   </g>
   <g id="patch_30">
    <path d="M 672.765783 143.163047 
L 705.765783 143.163047 
L 705.765783 131.613047 
L 672.765783 131.613047 
z
" style="fill: #cc8963; stroke: #ffffff; stroke-width: 1.5; stroke-linejoin: miter"/>
   </g>
   <g id="text_23">
    <!-- tc-agent -->
    <g style="fill: #262626" transform="translate(718.965783 143.163047) scale(0.165 -0.165)">
     <use xlink:href="#DejaVuSans-74"/>
     <use xlink:href="#DejaVuSans-63" transform="translate(39.208984 0)"/>
     <use xlink:href="#DejaVuSans-2d" transform="translate(94.189453 0)"/>
     <use xlink:href="#DejaVuSans-61" transform="translate(130.273438 0)"/>
     <use xlink:href="#DejaVuSans-67" transform="translate(191.552734 0)"/>
     <use xlink:href="#DejaVuSans-65" transform="translate(255.029297 0)"/>
     <use xlink:href="#DejaVuSans-6e" transform="translate(316.552734 0)"/>
     <use xlink:href="#DejaVuSans-74" transform="translate(379.931641 0)"/>
    </g>
   </g>
   <g id="patch_31">
    <path d="M 672.765783 167.381953 
L 705.765783 167.381953 
L 705.765783 155.831953 
L 672.765783 155.831953 
z
" style="fill: #5f9e6e; stroke: #ffffff; stroke-width: 1.5; stroke-linejoin: miter"/>
   </g>
   <g id="text_24">
    <!-- cd-agent -->
    <g style="fill: #262626" transform="translate(718.965783 167.381953) scale(0.165 -0.165)">
     <use xlink:href="#DejaVuSans-63"/>
     <use xlink:href="#DejaVuSans-64" transform="translate(54.980469 0)"/>
     <use xlink:href="#DejaVuSans-2d" transform="translate(118.457031 0)"/>
     <use xlink:href="#DejaVuSans-61" transform="translate(154.541016 0)"/>
     <use xlink:href="#DejaVuSans-67" transform="translate(215.820312 0)"/>
     <use xlink:href="#DejaVuSans-65" transform="translate(279.296875 0)"/>
     <use xlink:href="#DejaVuSans-6e" transform="translate(340.820312 0)"/>
     <use xlink:href="#DejaVuSans-74" transform="translate(404.199219 0)"/>
    </g>
   </g>
  </g>
 </g>
 <defs>
  <clipPath id="pd5981c3fa6">
   <rect x="83.113125" y="51.36" width="255.38239" height="143.1"/>
  </clipPath>
  <clipPath id="pbd0dc6516c">
   <rect x="411.696303" y="51.36" width="255.38239" height="143.1"/>
  </clipPath>
 </defs>
</svg>
