<?xml version="1.0" encoding="utf-8" standalone="no"?>
<!DOCTYPE svg PUBLIC "-//W3C//DTD SVG 1.1//EN"
  "http://www.w3.org/Graphics/SVG/1.1/DTD/svg11.dtd">
<svg xmlns:xlink="http://www.w3.org/1999/xlink" width="828.972697pt" height="288.269531pt" viewBox="0 0 828.972697 288.269531" xmlns="http://www.w3.org/2000/svg" version="1.1">
 <metadata>
  <rdf:RDF xmlns:dc="http://purl.org/dc/elements/1.1/" xmlns:cc="http://creativecommons.org/ns#" xmlns:rdf="http://www.w3.org/1999/02/22-rdf-syntax-ns#">
   <cc:Work>
    <dc:type rdf:resource="http://purl.org/dc/dcmitype/StillImage"/>
    <dc:date>2026-05-19T10:18:26.819937</dc:date>
    <dc:format>image/svg+xml</dc:format>
    <dc:creator>
     <cc:Agent>
      <dc:title>Matplotlib v3.10.9, https://matplotlib.org/</dc:title>
     </cc:Agent>
    </dc:creator>
   </cc:Work>
  </rdf:RDF>
 </metadata>
 <defs>
  <style type="text/css">*{stroke-linejoin: round; stroke-linecap: butt}</style>
 </defs>
 <g id="figure_1">
  <g id="patch_1">
   <path d="M 0 288.269531 
L 828.972697 288.269531 
L 828.972697 0 
L 0 0 
z
" style="fill: #ffffff"/>
  </g>
  <g id="axes_1">
   <g id="patch_2">
    <path d="M 62.116875 231.18 
L 338.128049 231.18 
L 338.128049 52.08 
L 62.116875 52.08 
z
" style="fill: #ffffff"/>
   </g>
   <g id="matplotlib.axis_1">
    <g id="xtick_1">
     <g id="line2d_1">
      <path d="M 74.662837 231.18 
L 74.662837 52.08 
" clip-path="url(#pa68d177ebb)" style="fill: none; stroke: #cccccc; stroke-width: 1.5; stroke-linecap: round"/>
     </g>
     <g id="text_1">
      <!-- $\mathdefault{10^{2}}$ -->
      <g style="fill: #262626" transform="translate(60.142837 256.217422) scale(0.165 -0.165)">
       <defs>
        <path id="DejaVuSans-31" d="M 794 531 
L 1825 531 
L 1825 4091 
L 703 3866 
L 703 4441 
L 1819 4666 
L 2450 4666 
L 2450 531 
L 3481 531 
L 3481 0 
L 794 0 
L 794 531 
z
" transform="scale(0.015625)"/>
        <path id="DejaVuSans-30" d="M 2034 4250 
Q 1547 4250 1301 3770 
Q 1056 3291 1056 2328 
Q 1056 1369 1301 889 
Q 1547 409 2034 409 
Q 2525 409 2770 889 
Q 3016 1369 3016 2328 
Q 3016 3291 2770 3770 
Q 2525 4250 2034 4250 
z
M 2034 4750 
Q 2819 4750 3233 4129 
Q 3647 3509 3647 2328 
Q 3647 1150 3233 529 
Q 2819 -91 2034 -91 
Q 1250 -91 836 529 
Q 422 1150 422 2328 
Q 422 3509 836 4129 
Q 1250 4750 2034 4750 
z
" transform="scale(0.015625)"/>
        <path id="DejaVuSans-32" d="M 1228 531 
L 3431 531 
L 3431 0 
L 469 0 
L 469 531 
Q 828 903 1448 1529 
Q 2069 2156 2228 2338 
Q 2531 2678 2651 2914 
Q 2772 3150 2772 3378 
Q 2772 3750 2511 3984 
Q 2250 4219 1831 4219 
Q 1534 4219 1204 4116 
Q 875 4013 500 3803 
L 500 4441 
Q 881 4594 1212 4672 
Q 1544 4750 1819 4750 
Q 2544 4750 2975 4387 
Q 3406 4025 3406 3419 
Q 3406 3131 3298 2873 
Q 3191 2616 2906 2266 
Q 2828 2175 2409 1742 
Q 1991 1309 1228 531 
z
" transform="scale(0.015625)"/>
       </defs>
       <use xlink:href="#DejaVuSans-31" transform="translate(0 0.765625)"/>
       <use xlink:href="#DejaVuSans-30" transform="translate(63.623047 0.765625)"/>
       <use xlink:href="#DejaVuSans-32" transform="translate(128.203125 39.046875) scale(0.7)"/>
      </g>
     </g>
    </g>
    <g id="xtick_2">
     <g id="line2d_2">
      <path d="M 200.122462 231.18 
L 200.122462 52.08 
" clip-path="url(#pa68d177ebb)" style="fill: none; stroke: #cccccc; stroke-width: 1.5; stroke-linecap: round"/>
     </g>
     <g id="text_2">
      <!-- $\mathdefault{10^{3}}$ -->
      <g style="fill: #262626" transform="translate(185.602462 256.217422) scale(0.165 -0.165)">
       <defs>
        <path id="DejaVuSans-33" d="M 2597 2516 
Q 3050 2419 3304 2112 
Q 3559 1806 3559 1356 
Q 3559 666 3084 287 
Q 2609 -91 1734 -91 
Q 1441 -91 1130 -33 
Q 819 25 488 141 
L 488 750 
Q 750 597 1062 519 
Q 1375 441 1716 441 
Q 2309 441 2620 675 
Q 2931 909 2931 1356 
Q 2931 1769 2642 2001 
Q 2353 2234 1838 2234 
L 1294 2234 
L 1294 2753 
L 1863 2753 
Q 2328 2753 2575 2939 
Q 2822 3125 2822 3475 
Q 2822 3834 2567 4026 
Q 2313 4219 1838 4219 
Q 1578 4219 1281 4162 
Q 984 4106 628 3988 
L 628 4550 
Q 988 4650 1302 4700 
Q 1616 4750 1894 4750 
Q 2613 4750 3031 4423 
Q 3450 4097 3450 3541 
Q 3450 3153 3228 2886 
Q 3006 2619 2597 2516 
z
" transform="scale(0.015625)"/>
       </defs>
       <use xlink:href="#DejaVuSans-31" transform="translate(0 0.765625)"/>
       <use xlink:href="#DejaVuSans-30" transform="translate(63.623047 0.765625)"/>
       <use xlink:href="#DejaVuSans-33" transform="translate(128.203125 39.046875) scale(0.7)"/>
      </g>
     </g>
    </g>
    <g id="xtick_3">
     <g id="line2d_3">
      <path d="M 325.582086 231.18 
L 325.582086 52.08 
" clip-path="url(#pa68d177ebb)" style="fill: none; stroke: #cccccc; stroke-width: 1.5; stroke-linecap: round"/>
     </g>
     <g id="text_3">
      <!-- $\mathdefault{10^{4}}$ -->
      <g style="fill: #262626" transform="translate(311.062086 256.217422) scale(0.165 -0.165)">
       <defs>
        <path id="DejaVuSans-34" d="M 2419 4116 
L 825 1625 
L 2419 1625 
L 2419 4116 
z
M 2253 4666 
L 3047 4666 
L 3047 1625 
L 3713 1625 
L 3713 1100 
L 3047 1100 
L 3047 0 
L 2419 0 
L 2419 1100 
L 313 1100 
L 313 1709 
L 2253 4666 
z
" transform="scale(0.015625)"/>
       </defs>
       <use xlink:href="#DejaVuSans-31" transform="translate(0 0.684375)"/>
       <use xlink:href="#DejaVuSans-30" transform="translate(63.623047 0.684375)"/>
       <use xlink:href="#DejaVuSans-34" transform="translate(128.203125 38.965625) scale(0.7)"/>
      </g>
     </g>
    </g>
    <g id="xtick_4"/>
    <g id="xtick_5"/>
    <g id="xtick_6"/>
    <g id="xtick_7"/>
    <g id="xtick_8"/>
    <g id="xtick_9"/>
    <g id="xtick_10"/>
    <g id="xtick_11"/>
    <g id="xtick_12"/>
    <g id="xtick_13"/>
    <g id="xtick_14"/>
    <g id="xtick_15"/>
    <g id="xtick_16"/>
    <g id="xtick_17"/>
    <g id="xtick_18"/>
    <g id="xtick_19"/>
    <g id="xtick_20"/>
    <g id="xtick_21"/>
    <g id="text_4">
     <!-- Patient count (log) -->
     <g style="fill: #262626" transform="translate(116.931524 277.326094) scale(0.18 -0.18)">
      <defs>
       <path id="DejaVuSans-50" d="M 1259 4147 
L 1259 2394 
L 2053 2394 
Q 2494 2394 2734 2622 
Q 2975 2850 2975 3272 
Q 2975 3691 2734 3919 
Q 2494 4147 2053 4147 
L 1259 4147 
z
M 628 4666 
L 2053 4666 
Q 2838 4666 3239 4311 
Q 3641 3956 3641 3272 
Q 3641 2581 3239 2228 
Q 2838 1875 2053 1875 
L 1259 1875 
L 1259 0 
L 628 0 
L 628 4666 
z
" transform="scale(0.015625)"/>
       <path id="DejaVuSans-61" d="M 2194 1759 
Q 1497 1759 1228 1600 
Q 959 1441 959 1056 
Q 959 750 1161 570 
Q 1363 391 1709 391 
Q 2188 391 2477 730 
Q 2766 1069 2766 1631 
L 2766 1759 
L 2194 1759 
z
M 3341 1997 
L 3341 0 
L 2766 0 
L 2766 531 
Q 2569 213 2275 61 
Q 1981 -91 1556 -91 
Q 1019 -91 701 211 
Q 384 513 384 1019 
Q 384 1609 779 1909 
Q 1175 2209 1959 2209 
L 2766 2209 
L 2766 2266 
Q 2766 2663 2505 2880 
Q 2244 3097 1772 3097 
Q 1472 3097 1187 3025 
Q 903 2953 641 2809 
L 641 3341 
Q 956 3463 1253 3523 
Q 1550 3584 1831 3584 
Q 2591 3584 2966 3190 
Q 3341 2797 3341 1997 
z
" transform="scale(0.015625)"/>
       <path id="DejaVuSans-74" d="M 1172 4494 
L 1172 3500 
L 2356 3500 
L 2356 3053 
L 1172 3053 
L 1172 1153 
Q 1172 725 1289 603 
Q 1406 481 1766 481 
L 2356 481 
L 2356 0 
L 1766 0 
Q 1100 0 847 248 
Q 594 497 594 1153 
L 594 3053 
L 172 3053 
L 172 3500 
L 594 3500 
L 594 4494 
L 1172 4494 
z
" transform="scale(0.015625)"/>
       <path id="DejaVuSans-69" d="M 603 3500 
L 1178 3500 
L 1178 0 
L 603 0 
L 603 3500 
z
M 603 4863 
L 1178 4863 
L 1178 4134 
L 603 4134 
L 603 4863 
z
" transform="scale(0.015625)"/>
       <path id="DejaVuSans-65" d="M 3597 1894 
L 3597 1613 
L 953 1613 
Q 991 1019 1311 708 
Q 1631 397 2203 397 
Q 2534 397 2845 478 
Q 3156 559 3463 722 
L 3463 178 
Q 3153 47 2828 -22 
Q 2503 -91 2169 -91 
Q 1331 -91 842 396 
Q 353 884 353 1716 
Q 353 2575 817 3079 
Q 1281 3584 2069 3584 
Q 2775 3584 3186 3129 
Q 3597 2675 3597 1894 
z
M 3022 2063 
Q 3016 2534 2758 2815 
Q 2500 3097 2075 3097 
Q 1594 3097 1305 2825 
Q 1016 2553 972 2059 
L 3022 2063 
z
" transform="scale(0.015625)"/>
       <path id="DejaVuSans-6e" d="M 3513 2113 
L 3513 0 
L 2938 0 
L 2938 2094 
Q 2938 2591 2744 2837 
Q 2550 3084 2163 3084 
Q 1697 3084 1428 2787 
Q 1159 2491 1159 1978 
L 1159 0 
L 581 0 
L 581 3500 
L 1159 3500 
L 1159 2956 
Q 1366 3272 1645 3428 
Q 1925 3584 2291 3584 
Q 2894 3584 3203 3211 
Q 3513 2838 3513 2113 
z
" transform="scale(0.015625)"/>
       <path id="DejaVuSans-20" transform="scale(0.015625)"/>
       <path id="DejaVuSans-63" d="M 3122 3366 
L 3122 2828 
Q 2878 2963 2633 3030 
Q 2388 3097 2138 3097 
Q 1578 3097 1268 2742 
Q 959 2388 959 1747 
Q 959 1106 1268 751 
Q 1578 397 2138 397 
Q 2388 397 2633 464 
Q 2878 531 3122 666 
L 3122 134 
Q 2881 22 2623 -34 
Q 2366 -91 2075 -91 
Q 1284 -91 818 406 
Q 353 903 353 1747 
Q 353 2603 823 3093 
Q 1294 3584 2113 3584 
Q 2378 3584 2631 3529 
Q 2884 3475 3122 3366 
z
" transform="scale(0.015625)"/>
       <path id="DejaVuSans-6f" d="M 1959 3097 
Q 1497 3097 1228 2736 
Q 959 2375 959 1747 
Q 959 1119 1226 758 
Q 1494 397 1959 397 
Q 2419 397 2687 759 
Q 2956 1122 2956 1747 
Q 2956 2369 2687 2733 
Q 2419 3097 1959 3097 
z
M 1959 3584 
Q 2709 3584 3137 3096 
Q 3566 2609 3566 1747 
Q 3566 888 3137 398 
Q 2709 -91 1959 -91 
Q 1206 -91 779 398 
Q 353 888 353 1747 
Q 353 2609 779 3096 
Q 1206 3584 1959 3584 
z
" transform="scale(0.015625)"/>
       <path id="DejaVuSans-75" d="M 544 1381 
L 544 3500 
L 1119 3500 
L 1119 1403 
Q 1119 906 1312 657 
Q 1506 409 1894 409 
Q 2359 409 2629 706 
Q 2900 1003 2900 1516 
L 2900 3500 
L 3475 3500 
L 3475 0 
L 2900 0 
L 2900 538 
Q 2691 219 2414 64 
Q 2138 -91 1772 -91 
Q 1169 -91 856 284 
Q 544 659 544 1381 
z
M 1991 3584 
L 1991 3584 
z
" transform="scale(0.015625)"/>
       <path id="DejaVuSans-28" d="M 1984 4856 
Q 1566 4138 1362 3434 
Q 1159 2731 1159 2009 
Q 1159 1288 1364 580 
Q 1569 -128 1984 -844 
L 1484 -844 
Q 1016 -109 783 600 
Q 550 1309 550 2009 
Q 550 2706 781 3412 
Q 1013 4119 1484 4856 
L 1984 4856 
z
" transform="scale(0.015625)"/>
       <path id="DejaVuSans-6c" d="M 603 4863 
L 1178 4863 
L 1178 0 
L 603 0 
L 603 4863 
z
" transform="scale(0.015625)"/>
       <path id="DejaVuSans-67" d="M 2906 1791 
Q 2906 2416 2648 2759 
Q 2391 3103 1925 3103 
Q 1463 3103 1205 2759 
Q 947 2416 947 1791 
Q 947 1169 1205 825 
Q 1463 481 1925 481 
Q 2391 481 2648 825 
Q 2906 1169 2906 1791 
z
M 3481 434 
Q 3481 -459 3084 -895 
Q 2688 -1331 1869 -1331 
Q 1566 -1331 1297 -1286 
Q 1028 -1241 775 -1147 
L 775 -588 
Q 1028 -725 1275 -790 
Q 1522 -856 1778 -856 
Q 2344 -856 2625 -561 
Q 2906 -266 2906 331 
L 2906 616 
Q 2728 306 2450 153 
Q 2172 0 1784 0 
Q 1141 0 747 490 
Q 353 981 353 1791 
Q 353 2603 747 3093 
Q 1141 3584 1784 3584 
Q 2172 3584 2450 3431 
Q 2728 3278 2906 2969 
L 2906 3500 
L 3481 3500 
L 3481 434 
z
" transform="scale(0.015625)"/>
       <path id="DejaVuSans-29" d="M 513 4856 
L 1013 4856 
Q 1481 4119 1714 3412 
Q 1947 2706 1947 2009 
Q 1947 1309 1714 600 
Q 1481 -109 1013 -844 
L 513 -844 
Q 928 -128 1133 580 
Q 1338 1288 1338 2009 
Q 1338 2731 1133 3434 
Q 928 4138 513 4856 
z
" transform="scale(0.015625)"/>
      </defs>
      <use xlink:href="#DejaVuSans-50"/>
      <use xlink:href="#DejaVuSans-61" transform="translate(55.802734 0)"/>
      <use xlink:href="#DejaVuSans-74" transform="translate(117.082031 0)"/>
      <use xlink:href="#DejaVuSans-69" transform="translate(156.291016 0)"/>
      <use xlink:href="#DejaVuSans-65" transform="translate(184.074219 0)"/>
      <use xlink:href="#DejaVuSans-6e" transform="translate(245.597656 0)"/>
      <use xlink:href="#DejaVuSans-74" transform="translate(308.976562 0)"/>
      <use xlink:href="#DejaVuSans-20" transform="translate(348.185547 0)"/>
      <use xlink:href="#DejaVuSans-63" transform="translate(379.972656 0)"/>
      <use xlink:href="#DejaVuSans-6f" transform="translate(434.953125 0)"/>
      <use xlink:href="#DejaVuSans-75" transform="translate(496.134766 0)"/>
      <use xlink:href="#DejaVuSans-6e" transform="translate(559.513672 0)"/>
      <use xlink:href="#DejaVuSans-74" transform="translate(622.892578 0)"/>
      <use xlink:href="#DejaVuSans-20" transform="translate(662.101562 0)"/>
      <use xlink:href="#DejaVuSans-28" transform="translate(693.888672 0)"/>
      <use xlink:href="#DejaVuSans-6c" transform="translate(732.902344 0)"/>
      <use xlink:href="#DejaVuSans-6f" transform="translate(760.685547 0)"/>
      <use xlink:href="#DejaVuSans-67" transform="translate(821.867188 0)"/>
      <use xlink:href="#DejaVuSans-29" transform="translate(885.34375 0)"/>
     </g>
    </g>
   </g>
   <g id="matplotlib.axis_2">
    <g id="ytick_1">
     <g id="line2d_4">
      <path d="M 62.116875 181.961363 
L 338.128049 181.961363 
" clip-path="url(#pa68d177ebb)" style="fill: none; stroke: #cccccc; stroke-width: 1.5; stroke-linecap: round"/>
     </g>
     <g id="text_5">
      <!-- 5 -->
      <g style="fill: #262626" transform="translate(39.11875 188.230074) scale(0.165 -0.165)">
       <defs>
        <path id="DejaVuSans-35" d="M 691 4666 
L 3169 4666 
L 3169 4134 
L 1269 4134 
L 1269 2991 
Q 1406 3038 1543 3061 
Q 1681 3084 1819 3084 
Q 2600 3084 3056 2656 
Q 3513 2228 3513 1497 
Q 3513 744 3044 326 
Q 2575 -91 1722 -91 
Q 1428 -91 1123 -41 
Q 819 9 494 109 
L 494 744 
Q 775 591 1075 516 
Q 1375 441 1709 441 
Q 2250 441 2565 725 
Q 2881 1009 2881 1497 
Q 2881 1984 2565 2268 
Q 2250 2553 1709 2553 
Q 1456 2553 1204 2497 
Q 953 2441 691 2322 
L 691 4666 
z
" transform="scale(0.015625)"/>
       </defs>
       <use xlink:href="#DejaVuSans-35"/>
      </g>
     </g>
    </g>
    <g id="ytick_2">
     <g id="line2d_5">
      <path d="M 62.116875 117.716576 
L 338.128049 117.716576 
" clip-path="url(#pa68d177ebb)" style="fill: none; stroke: #cccccc; stroke-width: 1.5; stroke-linecap: round"/>
     </g>
     <g id="text_6">
      <!-- 10 -->
      <g style="fill: #262626" transform="translate(28.620625 123.985287) scale(0.165 -0.165)">
       <use xlink:href="#DejaVuSans-31"/>
       <use xlink:href="#DejaVuSans-30" transform="translate(63.623047 0)"/>
      </g>
     </g>
    </g>
    <g id="ytick_3">
     <g id="line2d_6">
      <path d="M 62.116875 53.471789 
L 338.128049 53.471789 
" clip-path="url(#pa68d177ebb)" style="fill: none; stroke: #cccccc; stroke-width: 1.5; stroke-linecap: round"/>
     </g>
     <g id="text_7">
      <!-- 15 -->
      <g style="fill: #262626" transform="translate(28.620625 59.7405) scale(0.165 -0.165)">
       <use xlink:href="#DejaVuSans-31"/>
       <use xlink:href="#DejaVuSans-35" transform="translate(63.623047 0)"/>
      </g>
     </g>
    </g>
    <g id="text_8">
     <!-- rate -->
     <g style="fill: #262626" transform="translate(20.877188 159.91125) rotate(-90) scale(0.18 -0.18)">
      <defs>
       <path id="DejaVuSans-72" d="M 2631 2963 
Q 2534 3019 2420 3045 
Q 2306 3072 2169 3072 
Q 1681 3072 1420 2755 
Q 1159 2438 1159 1844 
L 1159 0 
L 581 0 
L 581 3500 
L 1159 3500 
L 1159 2956 
Q 1341 3275 1631 3429 
Q 1922 3584 2338 3584 
Q 2397 3584 2469 3576 
Q 2541 3569 2628 3553 
L 2631 2963 
z
" transform="scale(0.015625)"/>
      </defs>
      <use xlink:href="#DejaVuSans-72"/>
      <use xlink:href="#DejaVuSans-61" transform="translate(41.113281 0)"/>
      <use xlink:href="#DejaVuSans-74" transform="translate(102.392578 0)"/>
      <use xlink:href="#DejaVuSans-65" transform="translate(141.601562 0)"/>
     </g>
    </g>
   </g>
   <g id="FillBetweenPolyCollection_1">
    <defs>
     <path id="m9c09dde129" d="M 74.662837 -67.12938 
L 74.662837 -65.23044 
L 200.122462 -75.598248 
L 325.582086 -76.932715 
L 325.582086 -76.941411 
L 325.582086 -76.941411 
L 200.122462 -75.598248 
L 74.662837 -67.12938 
z
" style="stroke: #440154; stroke-opacity: 0.2; stroke-width: 1.5"/>
    </defs>
    <g clip-path="url(#pa68d177ebb)">
     <use xlink:href="#m9c09dde129" x="0" y="288.269531" style="fill: #440154; fill-opacity: 0.2; stroke: #440154; stroke-opacity: 0.2; stroke-width: 1.5"/>
    </g>
   </g>
   <g id="FillBetweenPolyCollection_2">
    <defs>
     <path id="m68353efde3" d="M 74.662837 -80.289029 
L 74.662837 -75.303075 
L 200.122462 -105.960899 
L 325.582086 -111.164617 
L 325.582086 -111.232966 
L 325.582086 -111.232966 
L 200.122462 -105.960899 
L 74.662837 -80.289029 
z
" style="stroke: #46327e; stroke-opacity: 0.2; stroke-width: 1.5"/>
    </defs>
    <g clip-path="url(#pa68d177ebb)">
     <use xlink:href="#m68353efde3" x="0" y="288.269531" style="fill: #46327e; fill-opacity: 0.2; stroke: #46327e; stroke-opacity: 0.2; stroke-width: 1.5"/>
    </g>
   </g>
   <g id="FillBetweenPolyCollection_3">
    <defs>
     <path id="m6d101f0d3f" d="M 74.662837 -85.749836 
L 74.662837 -79.356696 
L 200.122462 -153.758255 
L 325.582086 -177.456315 
L 325.582086 -178.114841 
L 325.582086 -178.114841 
L 200.122462 -154.644722 
L 74.662837 -85.749836 
z
" style="stroke: #277f8e; stroke-opacity: 0.2; stroke-width: 1.5"/>
    </defs>
    <g clip-path="url(#pa68d177ebb)">
     <use xlink:href="#m6d101f0d3f" x="0" y="288.269531" style="fill: #277f8e; fill-opacity: 0.2; stroke: #277f8e; stroke-opacity: 0.2; stroke-width: 1.5"/>
    </g>
   </g>
   <g id="FillBetweenPolyCollection_4">
    <defs>
     <path id="m4cd0142221" d="M 74.662837 -84.536323 
L 74.662837 -80.289029 
L 200.122462 -163.304825 
L 325.582086 -186.996957 
L 325.582086 -228.048622 
L 325.582086 -228.048622 
L 200.122462 -169.858417 
L 74.662837 -84.536323 
z
" style="stroke: #fde725; stroke-opacity: 0.2; stroke-width: 1.5"/>
    </defs>
    <g clip-path="url(#pa68d177ebb)">
     <use xlink:href="#m4cd0142221" x="0" y="288.269531" style="fill: #fde725; fill-opacity: 0.2; stroke: #fde725; stroke-opacity: 0.2; stroke-width: 1.5"/>
    </g>
   </g>
   <g id="line2d_7">
    <path d="M 74.662837 221.773131 
L 200.122462 212.671283 
L 325.582086 211.333917 
" clip-path="url(#pa68d177ebb)" style="fill: none; stroke: #440154; stroke-width: 2.25; stroke-linecap: round"/>
    <defs>
     <path id="mc37d9969cc" d="M 0 4.5 
C 1.193414 4.5 2.338109 4.025852 3.181981 3.181981 
C 4.025852 2.338109 4.5 1.193414 4.5 0 
C 4.5 -1.193414 4.025852 -2.338109 3.181981 -3.181981 
C 2.338109 -4.025852 1.193414 -4.5 0 -4.5 
C -1.193414 -4.5 -2.338109 -4.025852 -3.181981 -3.181981 
C -4.025852 -2.338109 -4.5 -1.193414 -4.5 0 
C -4.5 1.193414 -4.025852 2.338109 -3.181981 3.181981 
C -2.338109 4.025852 -1.193414 4.5 0 4.5 
z
" style="stroke: #ffffff; stroke-width: 0.75"/>
    </defs>
    <g clip-path="url(#pa68d177ebb)">
     <use xlink:href="#mc37d9969cc" x="74.662837" y="221.773131" style="fill: #440154; stroke: #ffffff; stroke-width: 0.75"/>
     <use xlink:href="#mc37d9969cc" x="200.122462" y="212.671283" style="fill: #440154; stroke: #ffffff; stroke-width: 0.75"/>
     <use xlink:href="#mc37d9969cc" x="325.582086" y="211.333917" style="fill: #440154; stroke: #ffffff; stroke-width: 0.75"/>
    </g>
   </g>
   <g id="line2d_8">
    <path d="M 74.662837 209.953265 
L 200.122462 182.308633 
L 325.582086 177.059348 
" clip-path="url(#pa68d177ebb)" style="fill: none; stroke: #46327e; stroke-width: 2.25; stroke-linecap: round"/>
    <defs>
     <path id="m2779bfb1a1" d="M -2.25 4.5 
L 0 2.25 
L 2.25 4.5 
L 4.5 2.25 
L 2.25 0 
L 4.5 -2.25 
L 2.25 -4.5 
L 0 -2.25 
L -2.25 -4.5 
L -4.5 -2.25 
L -2.25 0 
L -4.5 2.25 
z
" style="stroke: #ffffff; stroke-width: 0.75; stroke-linejoin: miter"/>
    </defs>
    <g clip-path="url(#pa68d177ebb)">
     <use xlink:href="#m2779bfb1a1" x="74.662837" y="209.953265" style="fill: #46327e; stroke: #ffffff; stroke-width: 0.75; stroke-linejoin: miter"/>
     <use xlink:href="#m2779bfb1a1" x="200.122462" y="182.308633" style="fill: #46327e; stroke: #ffffff; stroke-width: 0.75; stroke-linejoin: miter"/>
     <use xlink:href="#m2779bfb1a1" x="325.582086" y="177.059348" style="fill: #46327e; stroke: #ffffff; stroke-width: 0.75; stroke-linejoin: miter"/>
    </g>
   </g>
   <g id="line2d_9">
    <path d="M 74.662837 204.650742 
L 200.122462 134.215787 
L 325.582086 110.549976 
" clip-path="url(#pa68d177ebb)" style="fill: none; stroke: #277f8e; stroke-width: 2.25; stroke-linecap: round"/>
    <defs>
     <path id="m81d1d6c9b8" d="M -3.181981 -3.181981 
L -3.181981 3.181981 
L 3.181981 3.181981 
L 3.181981 -3.181981 
z
" style="stroke: #ffffff; stroke-width: 0.75; stroke-linejoin: miter"/>
    </defs>
    <g clip-path="url(#pa68d177ebb)">
     <use xlink:href="#m81d1d6c9b8" x="74.662837" y="204.650742" style="fill: #277f8e; stroke: #ffffff; stroke-width: 0.75; stroke-linejoin: miter"/>
     <use xlink:href="#m81d1d6c9b8" x="200.122462" y="134.215787" style="fill: #277f8e; stroke: #ffffff; stroke-width: 0.75; stroke-linejoin: miter"/>
     <use xlink:href="#m81d1d6c9b8" x="325.582086" y="110.549976" style="fill: #277f8e; stroke: #ffffff; stroke-width: 0.75; stroke-linejoin: miter"/>
    </g>
   </g>
   <g id="line2d_10">
    <path d="M 74.662837 205.148973 
L 200.122462 120.595645 
L 325.582086 85.770522 
" clip-path="url(#pa68d177ebb)" style="fill: none; stroke: #fde725; stroke-width: 2.25; stroke-linecap: round"/>
    <defs>
     <path id="mbc26763bb8" d="M -1.5 4.5 
L 1.5 4.5 
L 1.5 1.5 
L 4.5 1.5 
L 4.5 -1.5 
L 1.5 -1.5 
L 1.5 -4.5 
L -1.5 -4.5 
L -1.5 -1.5 
L -4.5 -1.5 
L -4.5 1.5 
L -1.5 1.5 
z
" style="stroke: #ffffff; stroke-width: 0.75; stroke-linejoin: miter"/>
    </defs>
    <g clip-path="url(#pa68d177ebb)">
     <use xlink:href="#mbc26763bb8" x="74.662837" y="205.148973" style="fill: #fde725; stroke: #ffffff; stroke-width: 0.75; stroke-linejoin: miter"/>
     <use xlink:href="#mbc26763bb8" x="200.122462" y="120.595645" style="fill: #fde725; stroke: #ffffff; stroke-width: 0.75; stroke-linejoin: miter"/>
     <use xlink:href="#mbc26763bb8" x="325.582086" y="85.770522" style="fill: #fde725; stroke: #ffffff; stroke-width: 0.75; stroke-linejoin: miter"/>
    </g>
   </g>
   <g id="line2d_11"/>
   <g id="line2d_12"/>
   <g id="line2d_13"/>
   <g id="line2d_14"/>
   <g id="patch_3">
    <path d="M 62.116875 231.18 
L 62.116875 52.08 
" style="fill: none; stroke: #cccccc; stroke-width: 1.875; stroke-linejoin: miter; stroke-linecap: square"/>
   </g>
   <g id="patch_4">
    <path d="M 62.116875 231.18 
L 338.128049 231.18 
" style="fill: none; stroke: #cccccc; stroke-width: 1.875; stroke-linejoin: miter; stroke-linecap: square"/>
   </g>
   <g id="text_9">
    <!-- bundles/sec -->
    <g style="fill: #262626" transform="translate(146.354493 46.08) scale(0.18 -0.18)">
     <defs>
      <path id="DejaVuSans-62" d="M 3116 1747 
Q 3116 2381 2855 2742 
Q 2594 3103 2138 3103 
Q 1681 3103 1420 2742 
Q 1159 2381 1159 1747 
Q 1159 1113 1420 752 
Q 1681 391 2138 391 
Q 2594 391 2855 752 
Q 3116 1113 3116 1747 
z
M 1159 2969 
Q 1341 3281 1617 3432 
Q 1894 3584 2278 3584 
Q 2916 3584 3314 3078 
Q 3713 2572 3713 1747 
Q 3713 922 3314 415 
Q 2916 -91 2278 -91 
Q 1894 -91 1617 61 
Q 1341 213 1159 525 
L 1159 0 
L 581 0 
L 581 4863 
L 1159 4863 
L 1159 2969 
z
" transform="scale(0.015625)"/>
      <path id="DejaVuSans-64" d="M 2906 2969 
L 2906 4863 
L 3481 4863 
L 3481 0 
L 2906 0 
L 2906 525 
Q 2725 213 2448 61 
Q 2172 -91 1784 -91 
Q 1150 -91 751 415 
Q 353 922 353 1747 
Q 353 2572 751 3078 
Q 1150 3584 1784 3584 
Q 2172 3584 2448 3432 
Q 2725 3281 2906 2969 
z
M 947 1747 
Q 947 1113 1208 752 
Q 1469 391 1925 391 
Q 2381 391 2643 752 
Q 2906 1113 2906 1747 
Q 2906 2381 2643 2742 
Q 2381 3103 1925 3103 
Q 1469 3103 1208 2742 
Q 947 2381 947 1747 
z
" transform="scale(0.015625)"/>
      <path id="DejaVuSans-73" d="M 2834 3397 
L 2834 2853 
Q 2591 2978 2328 3040 
Q 2066 3103 1784 3103 
Q 1356 3103 1142 2972 
Q 928 2841 928 2578 
Q 928 2378 1081 2264 
Q 1234 2150 1697 2047 
L 1894 2003 
Q 2506 1872 2764 1633 
Q 3022 1394 3022 966 
Q 3022 478 2636 193 
Q 2250 -91 1575 -91 
Q 1294 -91 989 -36 
Q 684 19 347 128 
L 347 722 
Q 666 556 975 473 
Q 1284 391 1588 391 
Q 1994 391 2212 530 
Q 2431 669 2431 922 
Q 2431 1156 2273 1281 
Q 2116 1406 1581 1522 
L 1381 1569 
Q 847 1681 609 1914 
Q 372 2147 372 2553 
Q 372 3047 722 3315 
Q 1072 3584 1716 3584 
Q 2034 3584 2315 3537 
Q 2597 3491 2834 3397 
z
" transform="scale(0.015625)"/>
      <path id="DejaVuSans-2f" d="M 1625 4666 
L 2156 4666 
L 531 -594 
L 0 -594 
L 1625 4666 
z
" transform="scale(0.015625)"/>
     </defs>
     <use xlink:href="#DejaVuSans-62"/>
     <use xlink:href="#DejaVuSans-75" transform="translate(63.476562 0)"/>
     <use xlink:href="#DejaVuSans-6e" transform="translate(126.855469 0)"/>
     <use xlink:href="#DejaVuSans-64" transform="translate(190.234375 0)"/>
     <use xlink:href="#DejaVuSans-6c" transform="translate(253.710938 0)"/>
     <use xlink:href="#DejaVuSans-65" transform="translate(281.494141 0)"/>
     <use xlink:href="#DejaVuSans-73" transform="translate(343.017578 0)"/>
     <use xlink:href="#DejaVuSans-2f" transform="translate(395.117188 0)"/>
     <use xlink:href="#DejaVuSans-73" transform="translate(428.808594 0)"/>
     <use xlink:href="#DejaVuSans-65" transform="translate(480.908203 0)"/>
     <use xlink:href="#DejaVuSans-63" transform="translate(542.431641 0)"/>
    </g>
   </g>
  </g>
  <g id="axes_2">
   <g id="patch_5">
    <path d="M 421.111823 231.18 
L 697.122997 231.18 
L 697.122997 52.08 
L 421.111823 52.08 
z
" style="fill: #ffffff"/>
   </g>
   <g id="matplotlib.axis_3">
    <g id="xtick_22">
     <g id="line2d_15">
      <path d="M 433.657786 231.18 
L 433.657786 52.08 
" clip-path="url(#pc297097666)" style="fill: none; stroke: #cccccc; stroke-width: 1.5; stroke-linecap: round"/>
     </g>
     <g id="text_10">
      <!-- $\mathdefault{10^{2}}$ -->
      <g style="fill: #262626" transform="translate(419.137786 256.217422) scale(0.165 -0.165)">
       <use xlink:href="#DejaVuSans-31" transform="translate(0 0.765625)"/>
       <use xlink:href="#DejaVuSans-30" transform="translate(63.623047 0.765625)"/>
       <use xlink:href="#DejaVuSans-32" transform="translate(128.203125 39.046875) scale(0.7)"/>
      </g>
     </g>
    </g>
    <g id="xtick_23">
     <g id="line2d_16">
      <path d="M 559.11741 231.18 
L 559.11741 52.08 
" clip-path="url(#pc297097666)" style="fill: none; stroke: #cccccc; stroke-width: 1.5; stroke-linecap: round"/>
     </g>
     <g id="text_11">
      <!-- $\mathdefault{10^{3}}$ -->
      <g style="fill: #262626" transform="translate(544.59741 256.217422) scale(0.165 -0.165)">
       <use xlink:href="#DejaVuSans-31" transform="translate(0 0.765625)"/>
       <use xlink:href="#DejaVuSans-30" transform="translate(63.623047 0.765625)"/>
       <use xlink:href="#DejaVuSans-33" transform="translate(128.203125 39.046875) scale(0.7)"/>
      </g>
     </g>
    </g>
    <g id="xtick_24">
     <g id="line2d_17">
      <path d="M 684.577035 231.18 
L 684.577035 52.08 
" clip-path="url(#pc297097666)" style="fill: none; stroke: #cccccc; stroke-width: 1.5; stroke-linecap: round"/>
     </g>
     <g id="text_12">
      <!-- $\mathdefault{10^{4}}$ -->
      <g style="fill: #262626" transform="translate(670.057035 256.217422) scale(0.165 -0.165)">
       <use xlink:href="#DejaVuSans-31" transform="translate(0 0.684375)"/>
       <use xlink:href="#DejaVuSans-30" transform="translate(63.623047 0.684375)"/>
       <use xlink:href="#DejaVuSans-34" transform="translate(128.203125 38.965625) scale(0.7)"/>
      </g>
     </g>
    </g>
    <g id="xtick_25"/>
    <g id="xtick_26"/>
    <g id="xtick_27"/>
    <g id="xtick_28"/>
    <g id="xtick_29"/>
    <g id="xtick_30"/>
    <g id="xtick_31"/>
    <g id="xtick_32"/>
    <g id="xtick_33"/>
    <g id="xtick_34"/>
    <g id="xtick_35"/>
    <g id="xtick_36"/>
    <g id="xtick_37"/>
    <g id="xtick_38"/>
    <g id="xtick_39"/>
    <g id="xtick_40"/>
    <g id="xtick_41"/>
    <g id="xtick_42"/>
    <g id="text_13">
     <!-- Patient count (log) -->
     <g style="fill: #262626" transform="translate(475.926473 277.326094) scale(0.18 -0.18)">
      <use xlink:href="#DejaVuSans-50"/>
      <use xlink:href="#DejaVuSans-61" transform="translate(55.802734 0)"/>
      <use xlink:href="#DejaVuSans-74" transform="translate(117.082031 0)"/>
      <use xlink:href="#DejaVuSans-69" transform="translate(156.291016 0)"/>
      <use xlink:href="#DejaVuSans-65" transform="translate(184.074219 0)"/>
      <use xlink:href="#DejaVuSans-6e" transform="translate(245.597656 0)"/>
      <use xlink:href="#DejaVuSans-74" transform="translate(308.976562 0)"/>
      <use xlink:href="#DejaVuSans-20" transform="translate(348.185547 0)"/>
      <use xlink:href="#DejaVuSans-63" transform="translate(379.972656 0)"/>
      <use xlink:href="#DejaVuSans-6f" transform="translate(434.953125 0)"/>
      <use xlink:href="#DejaVuSans-75" transform="translate(496.134766 0)"/>
      <use xlink:href="#DejaVuSans-6e" transform="translate(559.513672 0)"/>
      <use xlink:href="#DejaVuSans-74" transform="translate(622.892578 0)"/>
      <use xlink:href="#DejaVuSans-20" transform="translate(662.101562 0)"/>
      <use xlink:href="#DejaVuSans-28" transform="translate(693.888672 0)"/>
      <use xlink:href="#DejaVuSans-6c" transform="translate(732.902344 0)"/>
      <use xlink:href="#DejaVuSans-6f" transform="translate(760.685547 0)"/>
      <use xlink:href="#DejaVuSans-67" transform="translate(821.867188 0)"/>
      <use xlink:href="#DejaVuSans-29" transform="translate(885.34375 0)"/>
     </g>
    </g>
   </g>
   <g id="matplotlib.axis_4">
    <g id="ytick_4">
     <g id="line2d_18">
      <path d="M 421.111823 174.88411 
L 697.122997 174.88411 
" clip-path="url(#pc297097666)" style="fill: none; stroke: #cccccc; stroke-width: 1.5; stroke-linecap: round"/>
     </g>
     <g id="text_14">
      <!-- 5 -->
      <g style="fill: #262626" transform="translate(398.113698 181.152821) scale(0.165 -0.165)">
       <use xlink:href="#DejaVuSans-35"/>
      </g>
     </g>
    </g>
    <g id="ytick_5">
     <g id="line2d_19">
      <path d="M 421.111823 105.792181 
L 697.122997 105.792181 
" clip-path="url(#pc297097666)" style="fill: none; stroke: #cccccc; stroke-width: 1.5; stroke-linecap: round"/>
     </g>
     <g id="text_15">
      <!-- 10 -->
      <g style="fill: #262626" transform="translate(387.615573 112.060892) scale(0.165 -0.165)">
       <use xlink:href="#DejaVuSans-31"/>
       <use xlink:href="#DejaVuSans-30" transform="translate(63.623047 0)"/>
      </g>
     </g>
    </g>
   </g>
   <g id="FillBetweenPolyCollection_5">
    <defs>
     <path id="me09673d10a" d="M 433.657786 -66.946584 
L 433.657786 -65.23044 
L 559.11741 -76.961071 
L 684.577035 -78.744716 
L 684.577035 -78.753307 
L 684.577035 -78.753307 
L 559.11741 -76.961071 
L 433.657786 -66.946584 
z
" style="stroke: #440154; stroke-opacity: 0.2; stroke-width: 1.5"/>
    </defs>
    <g clip-path="url(#pc297097666)">
     <use xlink:href="#me09673d10a" x="0" y="288.269531" style="fill: #440154; fill-opacity: 0.2; stroke: #440154; stroke-opacity: 0.2; stroke-width: 1.5"/>
    </g>
   </g>
   <g id="FillBetweenPolyCollection_6">
    <defs>
     <path id="m89a6ae6bbe" d="M 433.657786 -78.839457 
L 433.657786 -74.333461 
L 559.11741 -106.538473 
L 684.577035 -112.566149 
L 684.577035 -112.633679 
L 684.577035 -112.633679 
L 559.11741 -106.538473 
L 433.657786 -78.839457 
z
" style="stroke: #46327e; stroke-opacity: 0.2; stroke-width: 1.5"/>
    </defs>
    <g clip-path="url(#pc297097666)">
     <use xlink:href="#m89a6ae6bbe" x="0" y="288.269531" style="fill: #46327e; fill-opacity: 0.2; stroke: #46327e; stroke-opacity: 0.2; stroke-width: 1.5"/>
    </g>
   </g>
   <g id="FillBetweenPolyCollection_7">
    <defs>
     <path id="md39d397052" d="M 433.657786 -83.774594 
L 433.657786 -77.996872 
L 559.11741 -153.099679 
L 684.577035 -178.062958 
L 684.577035 -178.713587 
L 684.577035 -178.713587 
L 559.11741 -153.963221 
L 433.657786 -83.774594 
z
" style="stroke: #277f8e; stroke-opacity: 0.2; stroke-width: 1.5"/>
    </defs>
    <g clip-path="url(#pc297097666)">
     <use xlink:href="#md39d397052" x="0" y="288.269531" style="fill: #277f8e; fill-opacity: 0.2; stroke: #277f8e; stroke-opacity: 0.2; stroke-width: 1.5"/>
    </g>
   </g>
   <g id="FillBetweenPolyCollection_8">
    <defs>
     <path id="mfb93370578" d="M 433.657786 -82.677897 
L 433.657786 -78.839457 
L 559.11741 -162.399354 
L 684.577035 -187.4892 
L 684.577035 -228.048622 
L 684.577035 -228.048622 
L 559.11741 -168.783454 
L 433.657786 -82.677897 
z
" style="stroke: #fde725; stroke-opacity: 0.2; stroke-width: 1.5"/>
    </defs>
    <g clip-path="url(#pc297097666)">
     <use xlink:href="#mfb93370578" x="0" y="288.269531" style="fill: #fde725; fill-opacity: 0.2; stroke: #fde725; stroke-opacity: 0.2; stroke-width: 1.5"/>
    </g>
   </g>
   <g id="line2d_20">
    <path d="M 433.657786 221.894995 
L 559.11741 211.30846 
L 684.577035 209.521952 
" clip-path="url(#pc297097666)" style="fill: none; stroke: #440154; stroke-width: 2.25; stroke-linecap: round"/>
    <g clip-path="url(#pc297097666)">
     <use xlink:href="#mc37d9969cc" x="433.657786" y="221.894995" style="fill: #440154; stroke: #ffffff; stroke-width: 0.75"/>
     <use xlink:href="#mc37d9969cc" x="559.11741" y="211.30846" style="fill: #440154; stroke: #ffffff; stroke-width: 0.75"/>
     <use xlink:href="#mc37d9969cc" x="684.577035" y="209.521952" style="fill: #440154; stroke: #ffffff; stroke-width: 0.75"/>
    </g>
   </g>
   <g id="line2d_21">
    <path d="M 433.657786 211.212935 
L 559.11741 181.731058 
L 684.577035 175.658362 
" clip-path="url(#pc297097666)" style="fill: none; stroke: #46327e; stroke-width: 2.25; stroke-linecap: round"/>
    <g clip-path="url(#pc297097666)">
     <use xlink:href="#m2779bfb1a1" x="433.657786" y="211.212935" style="fill: #46327e; stroke: #ffffff; stroke-width: 0.75; stroke-linejoin: miter"/>
     <use xlink:href="#m2779bfb1a1" x="559.11741" y="181.731058" style="fill: #46327e; stroke: #ffffff; stroke-width: 0.75; stroke-linejoin: miter"/>
     <use xlink:href="#m2779bfb1a1" x="684.577035" y="175.658362" style="fill: #46327e; stroke: #ffffff; stroke-width: 0.75; stroke-linejoin: miter"/>
    </g>
   </g>
   <g id="line2d_22">
    <path d="M 433.657786 206.420844 
L 559.11741 134.882005 
L 684.577035 109.94649 
" clip-path="url(#pc297097666)" style="fill: none; stroke: #277f8e; stroke-width: 2.25; stroke-linecap: round"/>
    <g clip-path="url(#pc297097666)">
     <use xlink:href="#m81d1d6c9b8" x="433.657786" y="206.420844" style="fill: #277f8e; stroke: #ffffff; stroke-width: 0.75; stroke-linejoin: miter"/>
     <use xlink:href="#m81d1d6c9b8" x="559.11741" y="134.882005" style="fill: #277f8e; stroke: #ffffff; stroke-width: 0.75; stroke-linejoin: miter"/>
     <use xlink:href="#m81d1d6c9b8" x="684.577035" y="109.94649" style="fill: #277f8e; stroke: #ffffff; stroke-width: 0.75; stroke-linejoin: miter"/>
    </g>
   </g>
   <g id="line2d_23">
    <path d="M 433.657786 206.871114 
L 559.11741 121.614111 
L 684.577035 85.464162 
" clip-path="url(#pc297097666)" style="fill: none; stroke: #fde725; stroke-width: 2.25; stroke-linecap: round"/>
    <g clip-path="url(#pc297097666)">
     <use xlink:href="#mbc26763bb8" x="433.657786" y="206.871114" style="fill: #fde725; stroke: #ffffff; stroke-width: 0.75; stroke-linejoin: miter"/>
     <use xlink:href="#mbc26763bb8" x="559.11741" y="121.614111" style="fill: #fde725; stroke: #ffffff; stroke-width: 0.75; stroke-linejoin: miter"/>
     <use xlink:href="#mbc26763bb8" x="684.577035" y="85.464162" style="fill: #fde725; stroke: #ffffff; stroke-width: 0.75; stroke-linejoin: miter"/>
    </g>
   </g>
   <g id="patch_6">
    <path d="M 421.111823 231.18 
L 421.111823 52.08 
" style="fill: none; stroke: #cccccc; stroke-width: 1.875; stroke-linejoin: miter; stroke-linecap: square"/>
   </g>
   <g id="patch_7">
    <path d="M 421.111823 231.18 
L 697.122997 231.18 
" style="fill: none; stroke: #cccccc; stroke-width: 1.875; stroke-linejoin: miter; stroke-linecap: square"/>
   </g>
   <g id="text_16">
    <!-- patients/sec -->
    <g style="fill: #262626" transform="translate(504.19491 46.08) scale(0.18 -0.18)">
     <defs>
      <path id="DejaVuSans-70" d="M 1159 525 
L 1159 -1331 
L 581 -1331 
L 581 3500 
L 1159 3500 
L 1159 2969 
Q 1341 3281 1617 3432 
Q 1894 3584 2278 3584 
Q 2916 3584 3314 3078 
Q 3713 2572 3713 1747 
Q 3713 922 3314 415 
Q 2916 -91 2278 -91 
Q 1894 -91 1617 61 
Q 1341 213 1159 525 
z
M 3116 1747 
Q 3116 2381 2855 2742 
Q 2594 3103 2138 3103 
Q 1681 3103 1420 2742 
Q 1159 2381 1159 1747 
Q 1159 1113 1420 752 
Q 1681 391 2138 391 
Q 2594 391 2855 752 
Q 3116 1113 3116 1747 
z
" transform="scale(0.015625)"/>
     </defs>
     <use xlink:href="#DejaVuSans-70"/>
     <use xlink:href="#DejaVuSans-61" transform="translate(63.476562 0)"/>
     <use xlink:href="#DejaVuSans-74" transform="translate(124.755859 0)"/>
     <use xlink:href="#DejaVuSans-69" transform="translate(163.964844 0)"/>
     <use xlink:href="#DejaVuSans-65" transform="translate(191.748047 0)"/>
     <use xlink:href="#DejaVuSans-6e" transform="translate(253.271484 0)"/>
     <use xlink:href="#DejaVuSans-74" transform="translate(316.650391 0)"/>
     <use xlink:href="#DejaVuSans-73" transform="translate(355.859375 0)"/>
     <use xlink:href="#DejaVuSans-2f" transform="translate(407.958984 0)"/>
     <use xlink:href="#DejaVuSans-73" transform="translate(441.650391 0)"/>
     <use xlink:href="#DejaVuSans-65" transform="translate(493.75 0)"/>
     <use xlink:href="#DejaVuSans-63" transform="translate(555.273438 0)"/>
    </g>
   </g>
  </g>
  <g id="text_17">
   <!-- End-to-end throughput -->
   <g style="fill: #262626" transform="translate(270.032947 23.612625) scale(0.216 -0.216)">
    <defs>
     <path id="DejaVuSans-45" d="M 628 4666 
L 3578 4666 
L 3578 4134 
L 1259 4134 
L 1259 2753 
L 3481 2753 
L 3481 2222 
L 1259 2222 
L 1259 531 
L 3634 531 
L 3634 0 
L 628 0 
L 628 4666 
z
" transform="scale(0.015625)"/>
     <path id="DejaVuSans-2d" d="M 313 2009 
L 1997 2009 
L 1997 1497 
L 313 1497 
L 313 2009 
z
" transform="scale(0.015625)"/>
     <path id="DejaVuSans-68" d="M 3513 2113 
L 3513 0 
L 2938 0 
L 2938 2094 
Q 2938 2591 2744 2837 
Q 2550 3084 2163 3084 
Q 1697 3084 1428 2787 
Q 1159 2491 1159 1978 
L 1159 0 
L 581 0 
L 581 4863 
L 1159 4863 
L 1159 2956 
Q 1366 3272 1645 3428 
Q 1925 3584 2291 3584 
Q 2894 3584 3203 3211 
Q 3513 2838 3513 2113 
z
" transform="scale(0.015625)"/>
    </defs>
    <use xlink:href="#DejaVuSans-45"/>
    <use xlink:href="#DejaVuSans-6e" transform="translate(63.183594 0)"/>
    <use xlink:href="#DejaVuSans-64" transform="translate(126.5625 0)"/>
    <use xlink:href="#DejaVuSans-2d" transform="translate(190.039062 0)"/>
    <use xlink:href="#DejaVuSans-74" transform="translate(226.123047 0)"/>
    <use xlink:href="#DejaVuSans-6f" transform="translate(265.332031 0)"/>
    <use xlink:href="#DejaVuSans-2d" transform="translate(328.388672 0)"/>
    <use xlink:href="#DejaVuSans-65" transform="translate(364.472656 0)"/>
    <use xlink:href="#DejaVuSans-6e" transform="translate(425.996094 0)"/>
    <use xlink:href="#DejaVuSans-64" transform="translate(489.375 0)"/>
    <use xlink:href="#DejaVuSans-20" transform="translate(552.851562 0)"/>
    <use xlink:href="#DejaVuSans-74" transform="translate(584.638672 0)"/>
    <use xlink:href="#DejaVuSans-68" transform="translate(623.847656 0)"/>
    <use xlink:href="#DejaVuSans-72" transform="translate(687.226562 0)"/>
    <use xlink:href="#DejaVuSans-6f" transform="translate(726.089844 0)"/>
    <use xlink:href="#DejaVuSans-75" transform="translate(787.271484 0)"/>
    <use xlink:href="#DejaVuSans-67" transform="translate(850.650391 0)"/>
    <use xlink:href="#DejaVuSans-68" transform="translate(914.126953 0)"/>
    <use xlink:href="#DejaVuSans-70" transform="translate(977.505859 0)"/>
    <use xlink:href="#DejaVuSans-75" transform="translate(1040.982422 0)"/>
    <use xlink:href="#DejaVuSans-74" transform="translate(1104.361328 0)"/>
   </g>
  </g>
  <g id="legend_1">
   <g id="text_18">
    <!-- concurrency -->
    <g style="fill: #262626" transform="translate(703.386135 100.663828) scale(0.18 -0.18)">
     <defs>
      <path id="DejaVuSans-79" d="M 2059 -325 
Q 1816 -950 1584 -1140 
Q 1353 -1331 966 -1331 
L 506 -1331 
L 506 -850 
L 844 -850 
Q 1081 -850 1212 -737 
Q 1344 -625 1503 -206 
L 1606 56 
L 191 3500 
L 800 3500 
L 1894 763 
L 2988 3500 
L 3597 3500 
L 2059 -325 
z
" transform="scale(0.015625)"/>
     </defs>
     <use xlink:href="#DejaVuSans-63"/>
     <use xlink:href="#DejaVuSans-6f" transform="translate(54.980469 0)"/>
     <use xlink:href="#DejaVuSans-6e" transform="translate(116.162109 0)"/>
     <use xlink:href="#DejaVuSans-63" transform="translate(179.541016 0)"/>
     <use xlink:href="#DejaVuSans-75" transform="translate(234.521484 0)"/>
     <use xlink:href="#DejaVuSans-72" transform="translate(297.900391 0)"/>
     <use xlink:href="#DejaVuSans-72" transform="translate(337.263672 0)"/>
     <use xlink:href="#DejaVuSans-65" transform="translate(376.126953 0)"/>
     <use xlink:href="#DejaVuSans-6e" transform="translate(437.650391 0)"/>
     <use xlink:href="#DejaVuSans-63" transform="translate(501.029297 0)"/>
     <use xlink:href="#DejaVuSans-79" transform="translate(556.009766 0)"/>
    </g>
   </g>
   <g id="line2d_24">
    <path d="M 719.907228 119.419688 
L 736.407228 119.419688 
L 752.907228 119.419688 
" style="fill: none; stroke: #440154; stroke-width: 2.25; stroke-linecap: round"/>
    <defs>
     <path id="mb297f128e5" d="M 0 4.5 
C 1.193414 4.5 2.338109 4.025852 3.181981 3.181981 
C 4.025852 2.338109 4.5 1.193414 4.5 0 
C 4.5 -1.193414 4.025852 -2.338109 3.181981 -3.181981 
C 2.338109 -4.025852 1.193414 -4.5 0 -4.5 
C -1.193414 -4.5 -2.338109 -4.025852 -3.181981 -3.181981 
C -4.025852 -2.338109 -4.5 -1.193414 -4.5 0 
C -4.5 1.193414 -4.025852 2.338109 -3.181981 3.181981 
C -2.338109 4.025852 -1.193414 4.5 0 4.5 
z
" style="stroke: #440154"/>
    </defs>
    <g>
     <use xlink:href="#mb297f128e5" x="736.407228" y="119.419688" style="fill: #440154; stroke: #440154"/>
    </g>
   </g>
   <g id="text_19">
    <!-- 16 -->
    <g style="fill: #262626" transform="translate(766.107228 125.194688) scale(0.165 -0.165)">
     <defs>
      <path id="DejaVuSans-36" d="M 2113 2584 
Q 1688 2584 1439 2293 
Q 1191 2003 1191 1497 
Q 1191 994 1439 701 
Q 1688 409 2113 409 
Q 2538 409 2786 701 
Q 3034 994 3034 1497 
Q 3034 2003 2786 2293 
Q 2538 2584 2113 2584 
z
M 3366 4563 
L 3366 3988 
Q 3128 4100 2886 4159 
Q 2644 4219 2406 4219 
Q 1781 4219 1451 3797 
Q 1122 3375 1075 2522 
Q 1259 2794 1537 2939 
Q 1816 3084 2150 3084 
Q 2853 3084 3261 2657 
Q 3669 2231 3669 1497 
Q 3669 778 3244 343 
Q 2819 -91 2113 -91 
Q 1303 -91 875 529 
Q 447 1150 447 2328 
Q 447 3434 972 4092 
Q 1497 4750 2381 4750 
Q 2619 4750 2861 4703 
Q 3103 4656 3366 4563 
z
" transform="scale(0.015625)"/>
     </defs>
     <use xlink:href="#DejaVuSans-31"/>
     <use xlink:href="#DejaVuSans-36" transform="translate(63.623047 0)"/>
    </g>
   </g>
   <g id="line2d_25">
    <path d="M 719.907228 143.638594 
L 736.407228 143.638594 
L 752.907228 143.638594 
" style="fill: none; stroke: #46327e; stroke-width: 2.25; stroke-linecap: round"/>
    <defs>
     <path id="mf754d77cbf" d="M -2.25 4.5 
L 0 2.25 
L 2.25 4.5 
L 4.5 2.25 
L 2.25 0 
L 4.5 -2.25 
L 2.25 -4.5 
L 0 -2.25 
L -2.25 -4.5 
L -4.5 -2.25 
L -2.25 0 
L -4.5 2.25 
z
" style="stroke: #46327e; stroke-linejoin: miter"/>
    </defs>
    <g>
     <use xlink:href="#mf754d77cbf" x="736.407228" y="143.638594" style="fill: #46327e; stroke: #46327e; stroke-linejoin: miter"/>
    </g>
   </g>
   <g id="text_20">
    <!-- 32 -->
    <g style="fill: #262626" transform="translate(766.107228 149.413594) scale(0.165 -0.165)">
     <use xlink:href="#DejaVuSans-33"/>
     <use xlink:href="#DejaVuSans-32" transform="translate(63.623047 0)"/>
    </g>
   </g>
   <g id="line2d_26">
    <path d="M 719.907228 167.8575 
L 736.407228 167.8575 
L 752.907228 167.8575 
" style="fill: none; stroke: #277f8e; stroke-width: 2.25; stroke-linecap: round"/>
    <defs>
     <path id="mdd02c2b010" d="M -3.181981 -3.181981 
L -3.181981 3.181981 
L 3.181981 3.181981 
L 3.181981 -3.181981 
z
" style="stroke: #277f8e; stroke-linejoin: miter"/>
    </defs>
    <g>
     <use xlink:href="#mdd02c2b010" x="736.407228" y="167.8575" style="fill: #277f8e; stroke: #277f8e; stroke-linejoin: miter"/>
    </g>
   </g>
   <g id="text_21">
    <!-- 64 -->
    <g style="fill: #262626" transform="translate(766.107228 173.6325) scale(0.165 -0.165)">
     <use xlink:href="#DejaVuSans-36"/>
     <use xlink:href="#DejaVuSans-34" transform="translate(63.623047 0)"/>
    </g>
   </g>
   <g id="line2d_27">
    <path d="M 719.907228 192.076406 
L 736.407228 192.076406 
L 752.907228 192.076406 
" style="fill: none; stroke: #fde725; stroke-width: 2.25; stroke-linecap: round"/>
    <defs>
     <path id="m0836bf1c37" d="M -1.5 4.5 
L 1.5 4.5 
L 1.5 1.5 
L 4.5 1.5 
L 4.5 -1.5 
L 1.5 -1.5 
L 1.5 -4.5 
L -1.5 -4.5 
L -1.5 -1.5 
L -4.5 -1.5 
L -4.5 1.5 
L -1.5 1.5 
z
" style="stroke: #fde725; stroke-linejoin: miter"/>
    </defs>
    <g>
     <use xlink:href="#m0836bf1c37" x="736.407228" y="192.076406" style="fill: #fde725; stroke: #fde725; stroke-linejoin: miter"/>
    </g>
   </g>
   <g id="text_22">
    <!-- 128 -->
    <g style="fill: #262626" transform="translate(766.107228 197.851406) scale(0.165 -0.165)">
     <defs>
      <path id="DejaVuSans-38" d="M 2034 2216 
Q 1584 2216 1326 1975 
Q 1069 1734 1069 1313 
Q 1069 891 1326 650 
Q 1584 409 2034 409 
Q 2484 409 2743 651 
Q 3003 894 3003 1313 
Q 3003 1734 2745 1975 
Q 2488 2216 2034 2216 
z
M 1403 2484 
Q 997 2584 770 2862 
Q 544 3141 544 3541 
Q 544 4100 942 4425 
Q 1341 4750 2034 4750 
Q 2731 4750 3128 4425 
Q 3525 4100 3525 3541 
Q 3525 3141 3298 2862 
Q 3072 2584 2669 2484 
Q 3125 2378 3379 2068 
Q 3634 1759 3634 1313 
Q 3634 634 3220 271 
Q 2806 -91 2034 -91 
Q 1263 -91 848 271 
Q 434 634 434 1313 
Q 434 1759 690 2068 
Q 947 2378 1403 2484 
z
M 1172 3481 
Q 1172 3119 1398 2916 
Q 1625 2713 2034 2713 
Q 2441 2713 2670 2916 
Q 2900 3119 2900 3481 
Q 2900 3844 2670 4047 
Q 2441 4250 2034 4250 
Q 1625 4250 1398 4047 
Q 1172 3844 1172 3481 
z
" transform="scale(0.015625)"/>
     </defs>
     <use xlink:href="#DejaVuSans-31"/>
     <use xlink:href="#DejaVuSans-32" transform="translate(63.623047 0)"/>
     <use xlink:href="#DejaVuSans-38" transform="translate(127.246094 0)"/>
    </g>
   </g>
  </g>
 </g>
 <defs>
  <clipPath id="pa68d177ebb">
   <rect x="62.116875" y="52.08" width="276.011174" height="179.1"/>
  </clipPath>
  <clipPath id="pc297097666">
   <rect x="421.111823" y="52.08" width="276.011174" height="179.1"/>
  </clipPath>
 </defs>
</svg>
